<?xml version="1.0" standalone="no"?>
<!DOCTYPE svg PUBLIC "-//W3C//DTD SVG 1.1//EN" "http://www.w3.org/Graphics/SVG/1.1/DTD/svg11.dtd" >
<svg xmlns="http://www.w3.org/2000/svg" xmlns:xlink="http://www.w3.org/1999/xlink" version="1.1">
<metadata>
Created by FontForge 20170910 at Sun May 22 10:50:32 2005
 By Jimmy Wärting
Copyright 1997 International Typeface Corporation. All rights reserved. "Frankfurter" is a trademark of International Typeface Corporation and may be registered in certain jurisdictions.
</metadata>
<defs>
<font id="FrankfurterMediumStd" horiz-adv-x="747" >
  <font-face 
    font-family="Frankfurter Medium Std"
    font-weight="400"
    font-stretch="normal"
    units-per-em="1000"
    panose-1="2 0 5 3 3 0 0 2 0 4"
    ascent="800"
    descent="-200"
    x-height="473"
    cap-height="673"
    bbox="-54 -267 1067 891"
    underline-thickness="0"
    underline-position="0"
    stemh="140"
    stemv="153"
    unicode-range="U+0020-FB02"
  />
<missing-glyph horiz-adv-x="500" 
d="M12 0v665h475v-665h-475zM88 618l162 -243l161 243h-323zM60 575v-484c0 -1 161 242 161 242zM440 575l-162 -242l162 -243v485zM411 48l-161 242l-162 -242h323z" />
    <glyph glyph-name="f_i" unicode="fi" horiz-adv-x="537" 
d="M74 473v12c2 74 8 99 30 129c23 32 63 53 100 53c53 0 88 -35 88 -90c0 -39 -17 -68 -40 -68c-5 0 -9 2 -16 5l-6 3c-3 2 -6 2 -8 2c-11 0 -15 -11 -15 -46h184c30 0 42 -2 54 -8c21 -11 33 -35 33 -66v-15v-302v-15c-1 -45 -27 -74 -67 -74c-39 0 -66 30 -66 74v15v271
h-138v-271v-15c-1 -45 -27 -74 -67 -74s-66 30 -66 74v15v271c-47 3 -71 23 -71 60c0 36 27 60 67 60h4zM412 668c43 0 79 -35 79 -79s-36 -79 -81 -79c-43 0 -80 35 -80 77c0 46 36 81 82 81z" />
    <glyph glyph-name="f_l" unicode="fl" horiz-adv-x="537" 
d="M344 473v105v15c1 45 27 74 67 74c39 0 66 -30 66 -74v-9v-502v-15c-1 -45 -27 -74 -66 -74c-40 0 -67 30 -67 74v15v271h-138v-271v-15c0 -45 -26 -74 -66 -74s-67 30 -67 74v15v271c-46 3 -70 23 -70 60c0 36 27 60 67 60h3l1 12c2 74 8 99 30 129c23 32 63 53 100 53
c53 0 88 -35 88 -90c0 -39 -17 -67 -40 -67c-5 0 -9 1 -16 4l-6 3c-3 2 -6 2 -8 2c-11 0 -15 -11 -16 -46h138z" />
    <glyph glyph-name=".notdef" horiz-adv-x="500" 
d="M12 0v665h475v-665h-475zM88 618l162 -243l161 243h-323zM60 575v-484c0 -1 161 242 161 242zM440 575l-162 -242l162 -243v485zM411 48l-161 242l-162 -242h323z" />
    <glyph glyph-name="space" unicode=" " horiz-adv-x="260" 
 />
    <glyph glyph-name="exclam" unicode="!" horiz-adv-x="293" 
d="M147 -10c-48 0 -87 39 -87 87s39 86 87 86s86 -38 86 -86s-38 -87 -86 -87zM217 583v-287v-15c-1 -48 -28 -78 -70 -78s-70 31 -70 78v15v287v16c1 47 28 78 70 78s70 -32 70 -78v-16z" />
    <glyph glyph-name="quotedbl" unicode="&#x22;" horiz-adv-x="431" 
d="M92 484l-26 98c-5 18 -6 22 -6 30c0 35 34 68 71 68c35 0 67 -30 67 -65c0 -8 -1 -13 -8 -37l-25 -96c-12 -45 -20 -59 -36 -59s-24 14 -37 61zM265 484l-26 98c-5 18 -6 22 -6 30c0 35 34 68 71 68c36 0 67 -30 67 -65c0 -8 -1 -13 -8 -37l-25 -96
c-12 -45 -20 -59 -36 -59s-24 14 -37 61z" />
    <glyph glyph-name="dollar" unicode="$" horiz-adv-x="548" 
d="M346 679l17 -6c45 -14 65 -25 87 -44c26 -24 38 -47 38 -73c0 -40 -31 -73 -67 -73c-14 0 -30 5 -43 15c-4 3 -16 12 -34 27c-26 20 -47 28 -74 28c-42 0 -73 -25 -73 -61c0 -22 12 -37 37 -48c10 -5 23 -8 68 -19c152 -34 216 -97 216 -211c0 -101 -69 -188 -167 -209
v-9c-2 -36 -7 -52 -22 -66s-34 -22 -55 -22c-48 0 -76 34 -76 92v2v3c-44 14 -68 24 -93 41c-50 32 -75 69 -75 111c0 44 30 77 71 77c24 0 45 -10 73 -32c61 -51 74 -58 110 -58c45 0 79 32 79 73c0 42 -30 67 -106 85l-82 20c-81 20 -131 82 -131 162c0 59 25 114 68 147
c22 17 43 28 81 43c1 21 4 32 9 44c13 24 40 40 68 40c43 0 72 -30 76 -79z" />
    <glyph glyph-name="percent" unicode="%" horiz-adv-x="754" 
d="M214 86l245 526c22 47 37 62 62 62c23 0 38 -14 38 -37c0 -11 -5 -30 -12 -46l-4 -7l-247 -531l-6 -13c-15 -32 -33 -49 -52 -49c-22 0 -42 18 -42 38c0 12 5 28 12 45zM553 299c85 0 154 -68 154 -152c0 -85 -68 -153 -153 -153c-84 0 -153 68 -153 153
c0 84 69 152 152 152zM199 673c85 0 153 -68 153 -152c0 -85 -68 -153 -152 -153c-85 0 -153 68 -153 152s68 153 152 153zM553 208c-33 0 -61 -27 -61 -60c0 -35 27 -63 62 -63c34 0 61 28 61 62s-27 61 -62 61zM199 582c-34 0 -61 -28 -61 -61c0 -35 27 -62 61 -62
s61 27 61 61s-27 62 -61 62z" />
    <glyph glyph-name="ampersand" unicode="&#x26;" horiz-adv-x="606" 
d="M408 261c14 55 31 75 68 75c41 0 70 -35 70 -85c0 -27 -5 -44 -23 -86l-4 -10l30 -29l10 -10c18 -18 26 -35 26 -53c0 -38 -30 -69 -69 -69c-16 0 -35 10 -51 25l-11 10l-12 12c-43 -36 -102 -57 -163 -57c-140 0 -249 106 -249 240c0 71 25 122 82 165
c-25 31 -38 67 -38 106c0 98 98 187 207 187c62 0 120 -27 160 -75c26 -32 43 -69 43 -99c0 -36 -30 -66 -66 -66c-21 0 -38 9 -50 24c-6 7 -7 11 -17 36c-12 31 -36 48 -68 48c-38 0 -70 -30 -70 -64c0 -14 2 -20 14 -37c7 -10 15 -20 18 -23zM199 293
c-21 -21 -29 -40 -29 -72c0 -61 47 -107 108 -107c28 0 47 6 70 24z" />
    <glyph glyph-name="quoteright" unicode="&#x2019;" horiz-adv-x="277" 
d="M114 526l-5 3c-33 16 -49 39 -49 72c0 43 36 79 79 79s78 -35 78 -77c0 -12 -3 -25 -10 -43l-29 -78c-10 -28 -21 -39 -40 -39s-38 18 -38 35c0 7 2 17 8 30z" />
    <glyph glyph-name="parenleft" unicode="(" horiz-adv-x="446" 
d="M73 343c0 105 50 235 120 315c28 31 67 64 104 88c30 19 47 25 67 25c37 0 69 -32 69 -71c0 -32 -13 -50 -53 -72c-100 -58 -165 -174 -165 -299c0 -124 64 -237 167 -296c35 -21 50 -40 50 -67c0 -42 -31 -75 -70 -75c-23 0 -54 15 -97 48c-125 94 -192 235 -192 404z
" />
    <glyph glyph-name="parenright" unicode=")" horiz-adv-x="446" 
d="M373 319c0 -105 -50 -235 -121 -314c-27 -32 -66 -65 -103 -89c-30 -19 -47 -25 -67 -25c-38 0 -69 32 -69 71c0 32 13 50 53 72c100 58 165 174 165 299c0 124 -65 237 -167 296c-35 21 -50 40 -50 67c0 42 31 75 70 75c23 0 54 -15 97 -48c125 -94 192 -235 192 -404z
" />
    <glyph glyph-name="asterisk" unicode="*" horiz-adv-x="435" 
d="M289 490l37 -49c7 -10 12 -23 12 -34c0 -22 -19 -40 -41 -40c-14 0 -29 8 -38 20l-41 57l-42 -57c-9 -12 -23 -20 -37 -20c-23 0 -42 18 -42 40c0 11 5 24 13 34l36 49l-55 20c-25 9 -34 20 -34 40c0 25 16 43 38 43c8 0 16 -2 24 -5l58 -21v71c0 22 17 39 41 39
s41 -17 41 -39v-71l57 21c8 3 17 5 25 5c21 0 38 -19 38 -43c0 -20 -10 -31 -35 -40z" />
    <glyph glyph-name="plus" unicode="+" 
d="M634 236h-194v-201h-133v201h-193v134h193v202h133v-202h194v-134z" />
    <glyph glyph-name="comma" unicode="," horiz-adv-x="281" 
d="M114 -10l-6 3c-37 18 -54 44 -54 81c0 47 39 87 87 87c47 0 87 -38 87 -85c0 -14 -4 -29 -11 -48l-32 -87c-12 -31 -24 -43 -45 -43c-22 0 -42 19 -42 39c0 8 3 19 8 34z" />
    <glyph glyph-name="hyphen" unicode="-" horiz-adv-x="367" 
d="M156 198h-9c-50 0 -80 25 -80 66c0 40 30 67 74 67h15h54h15c45 -1 74 -27 74 -66c0 -40 -30 -67 -74 -67h-8h-61z" />
    <glyph glyph-name="period" unicode="." horiz-adv-x="280" 
d="M140 -10c-48 0 -86 39 -86 87s38 86 86 86s87 -38 87 -86s-39 -87 -87 -87z" />
    <glyph glyph-name="slash" unicode="/" horiz-adv-x="343" 
d="M16 -13l192 719l4 14c10 35 31 53 61 53c34 0 61 -26 61 -60c0 -7 -1 -17 -3 -25l-2 -7l-194 -725l-4 -15c-10 -34 -31 -52 -62 -52c-34 0 -61 26 -61 60c0 7 2 17 4 24z" />
    <glyph glyph-name="zero" unicode="0" 
d="M372 677c191 0 345 -154 345 -343c0 -190 -153 -344 -343 -344s-344 154 -344 344c0 189 154 343 342 343zM372 525c-104 0 -191 -85 -191 -189c0 -108 85 -194 192 -194c106 0 191 86 191 192c0 105 -86 191 -192 191z" />
    <glyph glyph-name="one" unicode="1" horiz-adv-x="330" 
d="M103 526l-23 1h-15c-48 0 -78 28 -78 70c0 41 31 70 78 70h15h90c58 0 86 -35 86 -103v-468v-17c0 -53 -30 -86 -76 -86s-77 35 -77 86v17v430z" />
    <glyph glyph-name="two" unicode="2" horiz-adv-x="538" 
d="M293 140h121h16c48 -1 78 -28 78 -70s-32 -70 -78 -70h-16h-273c-5 0 -11 1 -17 2l-36 8c-25 9 -44 36 -44 61c0 16 13 45 26 57l253 249c18 18 29 41 29 63c0 43 -40 83 -85 83c-47 0 -84 -39 -84 -87l1 -18c0 -43 -33 -75 -76 -75c-48 0 -78 38 -78 97
c0 130 106 237 234 237c135 0 240 -107 240 -243c0 -60 -23 -115 -65 -155z" />
    <glyph glyph-name="three" unicode="3" horiz-adv-x="548" 
d="M427 386c26 -17 38 -26 50 -42c25 -29 41 -75 41 -116c0 -127 -115 -238 -247 -238c-131 0 -248 110 -248 232c0 49 34 85 80 85c42 0 72 -26 76 -65l1 -19c4 -46 44 -83 91 -83c49 0 90 40 90 86c0 40 -32 79 -72 92c-32 9 -31 9 -38 16c-8 8 -12 22 -12 36
c0 21 7 36 22 43l25 13c19 10 32 29 32 49c0 28 -24 52 -51 52c-25 0 -43 -17 -54 -50c-13 -34 -32 -48 -68 -48c-47 0 -79 33 -79 81c0 33 20 73 55 108c38 38 88 59 143 59c109 0 206 -87 206 -186c0 -39 -13 -71 -43 -105z" />
    <glyph glyph-name="four" unicode="4" horiz-adv-x="607" 
d="M506 277h8c52 0 83 -26 83 -70c0 -25 -15 -50 -35 -61c-15 -7 -28 -9 -56 -9v-41v-17c-1 -52 -31 -86 -77 -86s-76 35 -76 86v17v41h-237c-5 0 -23 4 -36 8c-31 8 -47 36 -47 81v62c0 17 11 46 25 64l12 15l166 233l10 14c24 37 49 53 85 53h22h67c39 0 51 -4 66 -20
c14 -15 20 -35 20 -68v-302zM353 277v249l-175 -249h175z" />
    <glyph glyph-name="five" unicode="5" horiz-adv-x="532" 
d="M216 527l-6 -46c18 2 28 2 40 2c143 0 252 -106 252 -245c0 -137 -111 -248 -249 -248c-66 0 -127 25 -175 71c-36 34 -55 70 -55 101c0 42 32 74 74 74c20 0 36 -6 49 -18c5 -4 8 -9 21 -29c22 -33 50 -50 85 -50c54 0 98 44 98 98c0 69 -60 110 -161 110
c-18 0 -37 -1 -51 -2c-12 -2 -22 -3 -25 -3c-40 0 -66 24 -66 61c0 5 0 13 1 20l23 158l2 15c8 50 36 71 97 71h213h16c47 -1 77 -28 77 -70s-31 -70 -77 -70h-16h-167z" />
    <glyph glyph-name="six" unicode="6" horiz-adv-x="578" 
d="M336 484c126 -14 212 -109 212 -235c0 -144 -115 -259 -258 -259c-142 0 -260 116 -260 256c0 55 21 116 55 161l162 214l18 24c20 26 40 37 65 37c41 0 77 -35 77 -73c0 -17 -7 -38 -21 -56l-10 -13zM288 355c-58 0 -105 -48 -105 -105c0 -59 47 -107 106 -107
c58 0 106 48 106 106c0 59 -48 106 -107 106z" />
    <glyph glyph-name="seven" unicode="7" horiz-adv-x="464" 
d="M277 527h-190h-16c-47 1 -77 28 -77 70c0 41 31 70 77 70h16h274c60 0 90 -29 90 -87c0 -21 -3 -35 -14 -62l-182 -454l-6 -16c-16 -37 -40 -55 -73 -55c-41 0 -76 33 -76 72c0 12 3 26 8 39l7 16z" />
    <glyph glyph-name="eight" unicode="8" horiz-adv-x="540" 
d="M438 387c52 -37 75 -84 75 -151c0 -139 -106 -246 -243 -246c-133 0 -244 110 -244 244c0 65 23 110 76 153c-29 40 -37 61 -37 95c0 105 94 195 204 195s205 -92 205 -198c0 -34 -9 -57 -36 -92zM270 527c-28 0 -52 -22 -52 -49c0 -30 23 -53 52 -53c28 0 51 23 51 51
s-24 51 -51 51zM270 317c-48 0 -87 -40 -87 -89c0 -48 40 -88 88 -88s88 40 88 88c0 49 -39 89 -89 89z" />
    <glyph glyph-name="nine" unicode="9" horiz-adv-x="578" 
d="M242 182c-128 16 -212 109 -212 236c0 144 114 259 258 259c141 0 260 -117 260 -255c0 -53 -22 -118 -56 -163l-163 -216c-30 -40 -46 -50 -75 -50c-41 0 -77 34 -77 73c0 17 7 38 21 55l10 14zM290 312c57 0 105 47 105 105c0 59 -48 107 -106 107
c-59 0 -106 -48 -106 -106c0 -59 47 -106 107 -106z" />
    <glyph glyph-name="colon" unicode=":" horiz-adv-x="280" 
d="M140 220c-48 0 -86 39 -86 87s38 86 86 86s87 -38 87 -86s-39 -87 -87 -87zM140 -10c-48 0 -86 39 -86 87s38 86 86 86s87 -38 87 -86s-39 -87 -87 -87z" />
    <glyph glyph-name="semicolon" unicode=";" horiz-adv-x="281" 
d="M140 220c-48 0 -87 39 -87 87s39 86 87 86s87 -38 87 -86s-39 -87 -87 -87zM114 -10l-6 3c-37 18 -55 44 -55 81c0 47 40 87 88 87c47 0 86 -38 86 -85c0 -14 -3 -29 -10 -48l-32 -87c-12 -31 -24 -43 -45 -43c-22 0 -42 19 -42 39c0 8 3 19 8 34z" />
    <glyph glyph-name="less" unicode="&#x3c;" 
d="M628 22l-509 215v132l509 213v-138l-358 -142v-2l358 -140v-138z" />
    <glyph glyph-name="equal" unicode="=" 
d="M634 360h-521v133h521v-133zM634 113h-521v133h521v-133z" />
    <glyph glyph-name="greater" unicode="&#x3e;" 
d="M628 236l-509 -214v139l358 141v2l-358 140v138l509 -214v-132z" />
    <glyph glyph-name="question" unicode="?" horiz-adv-x="541" 
d="M273 -10c-48 0 -86 39 -86 87s38 86 86 86s87 -38 87 -86s-39 -87 -87 -87zM505 436c0 -127 -108 -234 -236 -234c-49 0 -81 26 -81 67c0 39 22 59 72 67c72 11 109 45 109 104c0 57 -47 104 -104 104c-54 0 -88 -33 -104 -98c-8 -37 -29 -54 -64 -54
c-39 0 -67 29 -67 70c0 39 22 93 53 130c45 53 113 85 184 85c131 0 238 -108 238 -241z" />
    <glyph glyph-name="A" unicode="A" horiz-adv-x="628" 
d="M446 114h-268l-21 -49l-6 -15c-17 -37 -41 -54 -75 -54c-41 0 -77 33 -77 73c0 13 4 28 11 43l7 15l221 495c14 31 39 47 73 47c32 0 60 -17 73 -47l227 -493c15 -32 17 -42 17 -60c0 -40 -36 -74 -77 -74c-34 0 -59 18 -75 53l-7 16zM393 246l-81 192l-79 -192h160z" />
    <glyph glyph-name="B" unicode="B" horiz-adv-x="612" 
d="M494 357c58 -38 88 -93 88 -161c0 -70 -32 -132 -85 -166c-30 -20 -70 -30 -117 -30h-200h-18c-58 1 -88 32 -88 89v18v453v18c0 58 31 89 88 89h18h155c62 0 113 -14 147 -40c43 -33 67 -87 67 -146c0 -53 -17 -92 -55 -124zM227 405h106c18 0 33 2 42 6
c18 8 31 31 31 53c0 38 -28 62 -74 62h-105v-121zM227 139h122c22 0 34 2 46 10c19 11 33 35 33 58c0 42 -31 70 -78 70h-123v-138z" />
    <glyph glyph-name="C" unicode="C" horiz-adv-x="665" 
d="M30 334c0 189 155 343 344 343c81 0 153 -27 218 -80c39 -32 54 -55 54 -85c0 -41 -33 -74 -75 -74c-21 0 -37 7 -56 24l-16 15c-33 30 -80 48 -126 48c-105 0 -190 -87 -190 -192s87 -191 192 -191c42 0 92 17 118 41l27 25c18 17 36 24 57 24c41 0 75 -34 75 -75
c0 -23 -11 -43 -36 -68c-61 -61 -153 -99 -241 -99c-189 0 -345 156 -345 344z" />
    <glyph glyph-name="D" unicode="D" horiz-adv-x="698" 
d="M73 107v453v18c1 58 32 89 89 89h18h129c103 0 166 -19 229 -69c82 -66 130 -163 130 -266c0 -115 -61 -223 -161 -284c-52 -32 -117 -48 -198 -48h-129h-18c-58 1 -89 32 -89 89v18zM226 139h65c66 0 104 8 138 30c53 34 86 96 86 163c0 115 -89 192 -223 192h-66v-385z
" />
    <glyph glyph-name="E" unicode="E" horiz-adv-x="536" 
d="M226 527v-124h156h14c43 -1 71 -25 71 -63s-29 -64 -71 -64h-14h-156v-136h203h16c47 -1 78 -28 78 -70s-32 -70 -78 -70h-16h-249h-18c-58 1 -89 32 -89 89v18v453v18c1 58 32 89 89 89h18h244h16c47 -1 77 -28 77 -70s-31 -70 -77 -70h-16h-198z" />
    <glyph glyph-name="F" unicode="F" horiz-adv-x="535" 
d="M226 527v-130h157h14c43 -1 71 -26 71 -64c0 -37 -29 -63 -71 -63h-14h-157v-174v-17c0 -52 -30 -86 -76 -86s-77 35 -77 86v17v464v18c1 58 32 89 89 89h18h249h15c48 -1 78 -28 78 -70s-31 -70 -78 -70h-15h-203z" />
    <glyph glyph-name="G" unicode="G" horiz-adv-x="689" 
d="M501 248h-94h-15c-48 1 -78 28 -78 70c0 41 31 70 78 70h15h136h17c58 -1 89 -32 89 -89v-18v-83c0 -43 -15 -83 -41 -114c-47 -55 -142 -94 -231 -94c-190 0 -347 156 -347 344c0 190 154 343 345 343c64 0 129 -19 184 -54c37 -24 51 -45 51 -76c0 -42 -33 -75 -75 -75
c-20 0 -20 0 -61 26c-27 18 -64 29 -98 29c-106 0 -193 -88 -193 -193c0 -110 91 -196 209 -196c50 0 87 17 101 46c6 12 8 28 8 53v11z" />
    <glyph glyph-name="H" unicode="H" horiz-adv-x="701" 
d="M226 409h249v162v17c0 52 30 85 76 85s77 -34 77 -85v-17v-475v-17c-2 -52 -31 -86 -77 -86s-76 35 -76 86v17v173h-249v-173v-17c0 -52 -30 -86 -76 -86s-77 35 -77 86v17v475v17c1 52 31 85 77 85s76 -34 76 -85v-17v-162z" />
    <glyph glyph-name="I" unicode="I" horiz-adv-x="300" 
d="M226 571v-475v-17c0 -52 -30 -86 -76 -86s-77 35 -77 86v17v475v17c1 52 31 85 77 85s76 -34 76 -85v-17z" />
    <glyph glyph-name="J" unicode="J" horiz-adv-x="572" 
d="M518 571v-312c0 -79 -12 -122 -50 -170c-50 -65 -119 -99 -200 -99c-137 0 -252 111 -252 242c0 51 31 86 76 86c39 0 71 -29 75 -68l2 -17c6 -53 45 -90 97 -90c37 0 71 20 86 51c11 22 13 34 13 82v295v17c1 52 31 85 77 85c45 0 76 -34 76 -85v-17z" />
    <glyph glyph-name="K" unicode="K" horiz-adv-x="640" 
d="M366 343l219 -202c34 -32 44 -47 44 -73c0 -43 -35 -77 -78 -77c-18 0 -39 10 -57 27l-13 12l-255 240v-174v-17c0 -52 -30 -86 -76 -86s-77 35 -77 86v17v475v17c1 52 31 85 77 85s76 -34 76 -85v-17v-159l224 224l11 12c20 19 40 28 59 28c43 0 77 -34 77 -77
c0 -23 -10 -40 -41 -70z" />
    <glyph glyph-name="L" unicode="L" horiz-adv-x="516" 
d="M226 140h183h16c47 -1 77 -28 77 -70s-31 -70 -77 -70h-16h-229h-18c-58 1 -89 32 -89 89v18v464v17c1 52 31 85 77 85s76 -34 76 -85v-17v-431z" />
    <glyph glyph-name="M" unicode="M" horiz-adv-x="819" 
d="M407 318l104 288c17 47 39 67 74 67c37 0 65 -24 75 -67l121 -492l4 -16c2 -10 3 -20 3 -30c0 -40 -34 -73 -75 -73c-39 0 -67 24 -77 66l-4 17l-65 267l-89 -286l-5 -14c-11 -32 -36 -51 -65 -51c-33 0 -57 22 -70 65l-88 286l-63 -267l-4 -16c-11 -44 -38 -67 -77 -67
c-42 0 -75 33 -75 75c0 8 1 19 3 27l4 16l117 496c9 40 37 64 72 64c33 0 57 -19 72 -58z" />
    <glyph glyph-name="N" unicode="N" horiz-adv-x="724" 
d="M498 276v295v17c1 52 31 85 76 85c46 0 77 -34 77 -85v-17v-480c0 -37 -2 -50 -12 -64c-15 -23 -41 -37 -69 -37s-43 9 -72 48l-272 349v-291v-17c0 -52 -30 -86 -76 -86s-77 35 -77 86v17v488c0 29 3 42 13 56c15 22 36 33 60 33c28 0 46 -10 72 -44z" />
    <glyph glyph-name="O" unicode="O" horiz-adv-x="749" 
d="M373 677c88 0 177 -38 245 -103c65 -62 101 -149 101 -242c0 -188 -155 -342 -344 -342c-191 0 -345 153 -345 343s153 344 343 344zM375 525c-105 0 -193 -88 -193 -193s87 -191 193 -191s191 85 191 191s-86 193 -191 193z" />
    <glyph glyph-name="P" unicode="P" horiz-adv-x="576" 
d="M227 181v-85v-17c-1 -52 -31 -86 -77 -86s-76 35 -76 86v17v464v18c0 58 31 89 88 89h18h113c26 0 60 -5 92 -12c60 -14 106 -47 140 -102c24 -40 38 -87 38 -132c0 -91 -54 -177 -136 -217c-36 -17 -66 -23 -126 -23h-74zM227 321h60c45 0 59 2 77 13c31 17 51 51 51 86
c0 37 -24 75 -57 91c-13 6 -39 10 -71 10h-60v-200z" />
    <glyph glyph-name="Q" unicode="Q" horiz-adv-x="763" 
d="M679 165l30 -27l13 -11c22 -20 32 -39 32 -62c0 -42 -34 -77 -76 -77c-17 0 -38 9 -55 24l-13 11l-33 28c-66 -42 -129 -61 -199 -61c-192 0 -348 154 -348 344c0 189 155 343 345 343c191 0 347 -156 347 -347c0 -58 -13 -107 -43 -165zM377 525
c-106 0 -193 -86 -193 -191c0 -107 87 -193 194 -193c105 0 190 85 190 191c0 105 -87 193 -191 193z" />
    <glyph glyph-name="R" unicode="R" horiz-adv-x="595" 
d="M226 191v-95v-17c0 -52 -30 -86 -76 -86s-77 35 -77 86v17v464v18c1 58 32 89 89 89h18h103c78 0 127 -12 169 -40c69 -45 112 -123 112 -203c0 -93 -55 -164 -152 -198l114 -83c28 -21 42 -44 42 -71c0 -43 -33 -78 -75 -78c-17 0 -35 8 -53 22zM226 323h58
c45 0 67 4 85 15c29 18 47 50 47 85c0 38 -22 73 -57 90c-19 9 -30 10 -78 10h-55v-200z" />
    <glyph glyph-name="S" unicode="S" horiz-adv-x="548" 
d="M277 677c116 0 211 -58 211 -129c0 -39 -30 -71 -67 -71c-13 0 -27 5 -38 13c-2 1 -15 12 -34 27c-26 21 -53 32 -78 32c-41 0 -75 -28 -75 -61s20 -49 81 -64c58 -14 100 -28 133 -44c70 -33 108 -94 108 -171c0 -130 -99 -219 -243 -219c-130 0 -245 76 -245 162
c0 39 32 73 69 73c28 0 49 -10 82 -39c39 -36 71 -51 105 -51c45 0 79 31 79 72c0 35 -24 57 -78 73l-66 19c-49 14 -89 31 -114 49c-40 27 -62 75 -62 133c0 115 95 196 232 196z" />
    <glyph glyph-name="T" unicode="T" horiz-adv-x="557" 
d="M355 527v-431v-17c-1 -52 -31 -86 -77 -86c-45 0 -76 35 -76 86v17v431h-109h-15c-48 1 -78 28 -78 70c0 41 31 70 78 70h15h370h16c47 -1 78 -28 78 -70s-32 -70 -78 -70h-16h-108z" />
    <glyph glyph-name="U" unicode="U" horiz-adv-x="647" 
d="M54 260v311v17c0 52 30 85 76 85s77 -34 77 -85v-17v-311c0 -68 51 -121 117 -121c38 0 75 19 96 50c15 21 21 41 21 75v307v17c1 52 31 85 76 85c46 0 77 -34 77 -85v-17v-307c0 -155 -116 -274 -268 -274s-272 120 -272 270z" />
    <glyph glyph-name="V" unicode="V" horiz-adv-x="635" 
d="M317 235l149 368c21 54 41 71 80 71c40 0 75 -34 75 -73c0 -13 -3 -28 -9 -42l-7 -15l-213 -489c-18 -40 -41 -58 -74 -58c-34 0 -60 19 -77 58l-211 488l-7 15c-7 15 -10 30 -10 43c0 39 36 73 77 73c39 0 59 -18 80 -72z" />
    <glyph glyph-name="W" unicode="W" horiz-adv-x="904" 
d="M643 280l92 316c16 57 38 79 80 79s77 -33 77 -74c0 -11 -2 -23 -6 -34l-5 -16l-159 -498c-13 -40 -37 -60 -73 -60c-33 0 -60 20 -72 53l-124 351l-122 -351c-11 -33 -39 -53 -73 -53c-38 0 -59 17 -73 60l-162 495l-5 16c-4 12 -5 24 -5 35c0 39 34 72 75 72
s62 -20 79 -77l96 -314l112 339c10 32 40 53 77 53c34 0 63 -18 73 -46z" />
    <glyph glyph-name="X" unicode="X" horiz-adv-x="596" 
d="M392 342l157 -205c23 -31 31 -48 31 -70c0 -39 -37 -74 -78 -74c-29 0 -46 11 -76 50l-130 172l-124 -170c-30 -40 -48 -52 -78 -52c-41 0 -78 35 -78 75c0 22 7 38 31 70l154 204l-144 187c-25 32 -32 47 -32 68c0 42 36 77 80 77c29 0 46 -12 76 -51l115 -154l120 153
l11 14c20 26 41 38 67 38c41 0 78 -36 78 -74c0 -21 -11 -46 -31 -71z" />
    <glyph glyph-name="Y" unicode="Y" horiz-adv-x="577" 
d="M288 444l122 176l10 14c20 27 40 40 67 40c41 0 77 -35 77 -75c0 -15 -7 -35 -19 -52l-9 -14l-171 -248v-189v-17c-1 -52 -31 -86 -76 -86c-46 0 -77 35 -77 86v17v189l-171 248c-22 33 -28 46 -28 66c0 40 35 75 77 75c26 0 48 -14 67 -40l9 -14z" />
    <glyph glyph-name="Z" unicode="Z" horiz-adv-x="577" 
d="M239 140h225h16c47 -1 77 -28 77 -70s-31 -70 -77 -70h-16h-353c-56 0 -89 28 -89 76c0 19 5 34 18 52l290 399h-217h-15c-48 1 -78 28 -78 70c0 41 31 70 78 70h15h328c30 0 47 -2 60 -7c26 -10 46 -41 46 -72c0 -17 -8 -37 -22 -56z" />
    <glyph glyph-name="bracketleft" unicode="[" horiz-adv-x="356" 
d="M226 31h37h15c48 -1 78 -28 78 -70s-31 -70 -78 -70h-15h-63c-54 0 -76 8 -94 34c-10 15 -13 31 -13 73v666v18c1 59 32 89 89 89h18h57h16c48 -1 78 -28 78 -70s-32 -70 -78 -70h-16h-31v-600z" />
    <glyph glyph-name="backslash" unicode="\" horiz-adv-x="343" 
d="M208 -44l-194 725l-2 7c-2 9 -4 18 -4 26c0 33 28 59 62 59c30 0 52 -19 61 -53l4 -14l192 -719l4 -14c2 -8 3 -18 3 -26c0 -32 -27 -58 -61 -58c-30 0 -52 19 -61 52z" />
    <glyph glyph-name="bracketright" unicode="]" horiz-adv-x="356" 
d="M130 31v600h-32h-15c-48 1 -78 28 -78 70s32 70 78 70h16h57h18c58 -1 89 -31 89 -89v-18v-666c0 -45 -4 -61 -16 -77c-19 -23 -39 -30 -91 -30h-63h-15c-48 1 -78 28 -78 70s31 70 78 70h15h37z" />
    <glyph glyph-name="asciicircum" unicode="^" 
d="M677 299h-165l-138 267h-3l-135 -267h-165l236 413h130z" />
    <glyph glyph-name="underscore" unicode="_" horiz-adv-x="500" 
d="M0 -267v133h500v-133h-500z" />
    <glyph glyph-name="quoteleft" unicode="&#x2018;" horiz-adv-x="277" 
d="M163 598l5 -3c33 -16 49 -39 49 -72c0 -43 -36 -79 -79 -79s-78 35 -78 77c0 12 3 25 9 43l30 78c10 28 21 39 40 39s38 -18 38 -35c0 -7 -3 -17 -8 -30z" />
    <glyph glyph-name="a" unicode="a" horiz-adv-x="492" 
d="M304 34c-39 -30 -73 -43 -113 -43c-93 0 -165 75 -165 171c0 99 76 175 174 175c33 0 63 -9 99 -28c0 49 -17 67 -59 67c-9 0 -24 -2 -36 -5l-32 -9c-19 -6 -30 -8 -41 -8c-31 0 -52 22 -52 53c0 52 65 86 159 86c65 0 122 -19 156 -53c30 -31 42 -76 41 -153v-35v-152
v-18c0 -34 -3 -47 -15 -63c-13 -17 -32 -26 -54 -26c-28 0 -47 12 -62 41zM299 166c0 39 -28 69 -66 69c-36 0 -65 -30 -65 -67c0 -38 29 -67 67 -67c37 0 64 28 64 65z" />
    <glyph glyph-name="b" unicode="b" horiz-adv-x="581" 
d="M193 437c41 32 81 46 133 46c130 0 228 -106 228 -246c0 -142 -98 -247 -231 -247c-55 0 -93 14 -136 51c-11 -33 -31 -48 -63 -48c-24 0 -45 11 -54 29c-8 14 -10 26 -10 58v498v15c1 45 27 74 67 74c39 0 66 -30 66 -74v-15v-141zM302 349c-61 0 -112 -50 -112 -112
c0 -63 50 -113 112 -113c63 0 113 51 113 114c0 61 -51 111 -113 111z" />
    <glyph glyph-name="c" unicode="c" horiz-adv-x="489" 
d="M27 238c0 134 111 246 245 246c50 0 103 -17 144 -45c36 -25 48 -43 48 -71c0 -37 -30 -66 -68 -66c-16 0 -24 3 -42 17c-29 23 -48 31 -76 31c-65 0 -116 -51 -116 -113c0 -63 51 -113 114 -113c19 0 37 4 51 13c4 2 16 11 34 24c15 11 26 15 41 15c37 0 67 -30 67 -67
c0 -58 -99 -119 -194 -119c-137 0 -248 112 -248 248z" />
    <glyph glyph-name="d" unicode="d" horiz-adv-x="581" 
d="M388 437v141v15c1 45 27 74 66 74c40 0 67 -30 67 -74v-15v-498c0 -32 -2 -45 -10 -58c-10 -19 -30 -29 -54 -29c-32 0 -51 15 -63 48c-43 -37 -81 -51 -136 -51c-133 0 -231 105 -231 247c0 140 98 246 228 246c52 0 92 -14 133 -46zM279 349c-62 0 -113 -50 -113 -111
c0 -63 50 -114 113 -114c62 0 112 51 112 113s-51 112 -112 112z" />
    <glyph glyph-name="e" unicode="e" horiz-adv-x="500" 
d="M203 154c22 -19 43 -27 72 -27c27 0 50 8 77 28c16 12 27 16 42 16c38 0 67 -29 67 -66c0 -28 -15 -50 -50 -74c-37 -26 -88 -41 -136 -41c-134 0 -248 114 -248 248c0 133 112 245 244 245c108 0 209 -79 209 -166c0 -29 -15 -47 -55 -65zM334 325c-13 20 -32 28 -59 28
c-58 0 -106 -44 -111 -101z" />
    <glyph glyph-name="f" unicode="f" horiz-adv-x="306" 
d="M207 353v-271v-15c-1 -45 -27 -74 -67 -74s-66 30 -66 74v15v271c-47 3 -71 23 -71 60c0 36 27 60 67 60h4v12c1 62 5 85 18 110c24 46 68 72 125 72c69 0 126 -42 126 -94c0 -37 -28 -68 -61 -68c-10 0 -20 3 -28 7l-14 8c-4 2 -8 3 -11 3c-10 0 -20 -11 -21 -25
c-1 -6 -1 -9 -1 -25h24h13c41 -1 67 -24 67 -60c0 -35 -27 -60 -67 -60h-13h-24z" />
    <glyph glyph-name="g" unicode="g" horiz-adv-x="546" 
d="M365 438c11 27 33 42 59 42c20 0 40 -10 52 -27c10 -14 13 -26 13 -54v-327c0 -73 -12 -122 -40 -156c-44 -54 -114 -85 -193 -85c-107 0 -199 53 -199 115c0 36 28 65 64 65c20 0 32 -5 61 -26c31 -21 50 -29 80 -29c60 0 94 39 94 108v8c-39 -28 -74 -40 -120 -40
c-119 0 -209 96 -209 222c0 129 90 229 207 229c50 0 86 -12 131 -45zM264 355c-53 0 -97 -43 -97 -97c0 -55 43 -98 97 -98s97 43 97 97s-43 98 -97 98z" />
    <glyph glyph-name="h" unicode="h" horiz-adv-x="542" 
d="M193 459c30 18 54 24 89 24c73 0 136 -33 172 -90c26 -40 32 -66 32 -132v-179v-15c-1 -45 -27 -74 -67 -74s-66 30 -66 74v15v166c0 31 -3 43 -11 59c-12 26 -40 42 -68 42c-27 0 -55 -15 -68 -38c-9 -16 -13 -34 -13 -63v-166v-15c-1 -45 -26 -74 -66 -74
s-67 30 -67 74v15v496v15c1 45 27 74 67 74s66 -30 66 -74v-9v-125z" />
    <glyph glyph-name="i" unicode="i" horiz-adv-x="253" 
d="M195 391v-309v-15c-1 -45 -27 -74 -66 -74c-40 0 -67 30 -67 74v15v309v15c1 45 27 74 66 74c40 0 67 -30 67 -74v-15zM128 668c44 0 79 -35 79 -79s-36 -80 -81 -80c-43 0 -80 36 -80 78c0 46 36 81 82 81z" />
    <glyph glyph-name="j" unicode="j" horiz-adv-x="257" 
d="M131 668c44 0 79 -35 79 -79s-36 -80 -80 -80s-80 36 -80 78c0 46 35 81 81 81zM193 391v-317v-37c0 -56 0 -64 -7 -87c-17 -65 -78 -117 -138 -117c-46 0 -78 28 -78 67c0 23 10 41 32 55l26 17c22 14 32 45 32 95v324v15c1 45 27 74 67 74s66 -30 66 -74v-15z" />
    <glyph glyph-name="k" unicode="k" horiz-adv-x="497" 
d="M193 326l164 129l11 10c17 12 35 19 51 19c34 0 65 -32 65 -68c0 -23 -11 -43 -34 -59l-12 -9l-127 -92l136 -131c29 -28 37 -42 37 -64c0 -38 -31 -69 -70 -69c-17 0 -36 10 -53 27l-10 11l-158 167v-115v-15c-1 -45 -26 -74 -66 -74s-67 30 -67 74v15v496v15
c1 45 27 74 67 74s66 -30 66 -74v-15v-252z" />
    <glyph glyph-name="l" unicode="l" horiz-adv-x="253" 
d="M60 82v496v15c1 45 27 74 67 74s66 -30 66 -74v-9v-502v-9c1 -50 -24 -80 -66 -80c-40 0 -67 30 -67 74v15z" />
    <glyph glyph-name="m" unicode="m" horiz-adv-x="809" 
d="M405 429c42 36 88 54 139 54c114 0 208 -95 208 -210v-191v-15c-1 -45 -26 -74 -66 -74s-67 30 -67 74v15v166c0 34 -2 47 -8 62c-10 25 -37 42 -66 42c-26 0 -50 -14 -61 -36c-9 -18 -12 -34 -12 -68v-166v-15c0 -45 -26 -74 -66 -74s-67 30 -67 74v15v166
c0 24 -2 43 -6 56c-8 29 -36 50 -68 50c-33 0 -60 -20 -69 -50c-5 -15 -6 -27 -6 -56v-166v-15c-1 -45 -27 -74 -67 -74c-39 0 -66 30 -66 74v15v200c0 109 94 201 206 201c49 0 96 -18 142 -54z" />
    <glyph glyph-name="n" unicode="n" horiz-adv-x="543" 
d="M353 82v153c0 40 -2 52 -9 69c-12 27 -42 46 -73 46c-46 0 -81 -38 -81 -86v-25v-157v-15c-1 -45 -27 -74 -67 -74c-39 0 -66 30 -66 74v15v169c0 65 14 110 47 152c40 50 102 80 166 80c74 0 147 -41 187 -106c19 -31 29 -77 29 -130v-165v-15c-1 -45 -27 -74 -66 -74
c-40 0 -67 30 -67 74v15z" />
    <glyph glyph-name="o" unicode="o" horiz-adv-x="551" 
d="M277 483c137 0 247 -110 247 -248c0 -134 -112 -245 -248 -245s-249 110 -249 242c0 141 110 251 250 251zM277 350c-65 0 -114 -50 -114 -116c0 -59 51 -109 113 -109s113 50 113 112c0 63 -50 113 -112 113z" />
    <glyph glyph-name="p" unicode="p" horiz-adv-x="581" 
d="M193 37v-141v-15c-1 -46 -26 -74 -66 -74s-67 29 -67 74v15v498c0 32 2 45 10 58c10 18 30 28 54 28c32 0 52 -15 63 -48c43 37 81 51 136 51c133 0 231 -105 231 -247c0 -140 -98 -246 -228 -246c-52 0 -92 14 -133 47zM302 124c62 0 113 50 113 111
c0 64 -50 114 -113 114c-62 0 -112 -50 -112 -113c0 -62 51 -112 112 -112z" />
    <glyph glyph-name="q" unicode="q" horiz-adv-x="581" 
d="M388 37c-41 -33 -81 -47 -133 -47c-130 0 -228 106 -228 246c0 142 98 247 231 247c55 0 93 -14 136 -51c12 33 31 48 63 48c24 0 45 -11 54 -28c8 -15 10 -27 10 -58v-498v-15c-1 -46 -27 -74 -67 -74c-39 0 -66 30 -66 74v15v141zM279 124c62 0 112 51 112 112
c0 63 -50 113 -112 113c-63 0 -113 -50 -113 -114c0 -61 51 -111 113 -111z" />
    <glyph glyph-name="r" unicode="r" horiz-adv-x="376" 
d="M187 441c31 27 67 42 103 42c47 0 86 -37 86 -82c0 -44 -36 -79 -80 -79c-19 0 -22 2 -48 17c-10 6 -18 9 -26 9c-21 0 -29 -17 -29 -61v-205v-15c-1 -45 -26 -74 -66 -74s-67 30 -67 74v15v301c0 39 1 48 9 62c13 23 33 35 57 35c27 0 48 -14 61 -39z" />
    <glyph glyph-name="s" unicode="s" horiz-adv-x="446" 
d="M226 484c85 0 159 -44 159 -94c0 -31 -28 -59 -60 -59c-17 0 -32 5 -57 20c-32 18 -41 23 -55 23s-25 -11 -25 -23c0 -22 19 -33 80 -49c45 -12 65 -19 86 -30c41 -23 65 -66 65 -116c0 -98 -79 -166 -192 -166c-104 0 -200 63 -200 131c0 36 28 68 61 68
c22 0 43 -11 70 -34c39 -34 53 -41 79 -41s46 15 46 35c0 17 -13 27 -44 34c-37 9 -87 26 -115 39c-44 22 -73 69 -73 118c0 56 37 108 94 131c21 8 48 13 81 13z" />
    <glyph glyph-name="t" unicode="t" horiz-adv-x="308" 
d="M83 473v71v15c1 46 27 74 67 74c39 0 66 -30 66 -74v-15v-71h15h14c40 -1 66 -24 66 -60c0 -35 -27 -60 -66 -60h-14h-15v-271v-15c-1 -45 -27 -74 -67 -74c-39 0 -66 30 -66 74v15v271h-7c-43 0 -69 23 -69 60c0 40 27 61 76 60z" />
    <glyph glyph-name="u" unicode="u" horiz-adv-x="543" 
d="M190 391v-153c0 -40 2 -52 9 -68c12 -27 42 -47 73 -47c46 0 81 38 81 86v25v157v15c1 45 27 74 67 74c39 0 66 -30 66 -74v-15v-168c0 -65 -14 -111 -47 -152c-40 -51 -102 -81 -166 -81c-74 0 -147 41 -187 106c-19 31 -29 78 -29 130v165v15c1 45 26 74 66 74
s67 -30 67 -74v-15z" />
    <glyph glyph-name="v" unicode="v" horiz-adv-x="475" 
d="M239 200l95 221c20 46 36 59 69 59c36 0 66 -28 66 -62c0 -12 -3 -25 -9 -37l-6 -14l-148 -325c-15 -34 -35 -49 -66 -49c-32 0 -49 13 -66 49l-152 324l-6 13c-6 14 -9 27 -9 39c0 34 30 62 65 62s50 -13 71 -59z" />
    <glyph glyph-name="w" unicode="w" horiz-adv-x="690" 
d="M345 244l-76 -196c-17 -42 -32 -55 -66 -55c-29 0 -51 15 -61 42l-4 13l-121 327l-5 14c-4 11 -6 22 -6 32c0 34 30 62 65 62c30 0 53 -18 64 -52l4 -13l64 -196l75 204c14 39 34 56 68 56c31 0 52 -16 65 -50l77 -210l59 192l4 15c12 35 35 54 66 54c36 0 67 -29 67 -65
c0 -10 -2 -21 -6 -32l-5 -14l-116 -325c-15 -40 -32 -54 -65 -54c-34 0 -51 14 -68 54z" />
    <glyph glyph-name="x" unicode="x" horiz-adv-x="480" 
d="M242 349l79 91c26 31 43 41 67 41c37 0 69 -32 69 -70c0 -19 -9 -35 -33 -62l-94 -102l107 -125c24 -27 31 -42 31 -61c0 -37 -31 -69 -68 -69c-24 0 -41 11 -67 43l-91 111l-95 -113c-27 -31 -42 -41 -66 -41c-38 0 -69 31 -69 69c0 18 8 34 31 61l110 125l-90 108
c-22 27 -29 42 -29 62c0 35 31 64 69 64c24 0 38 -9 64 -40z" />
    <glyph glyph-name="y" unicode="y" horiz-adv-x="490" 
d="M252 204l90 212l6 15c15 33 37 49 67 49c36 0 69 -31 69 -66c0 -15 -4 -28 -16 -53l-191 -402c-18 -38 -26 -51 -40 -69c-26 -33 -70 -54 -112 -54c-64 0 -118 40 -118 87c0 35 27 65 59 65c9 0 18 -1 28 -4l19 -5c7 -2 14 -3 20 -3c15 0 29 14 39 40l14 36l-152 312
l-7 13c-6 14 -10 28 -10 40c0 34 32 63 67 63c29 0 50 -15 64 -46l6 -13z" />
    <glyph glyph-name="z" unicode="z" horiz-adv-x="438" 
d="M214 122h123h14c41 -1 67 -25 67 -61s-27 -61 -67 -61h-14h-238c-19 0 -29 2 -42 8c-21 11 -37 37 -37 60c0 18 4 26 29 59l172 224h-107h-14c-41 1 -68 25 -68 61c0 37 28 61 68 61h14h218c49 0 82 -28 82 -70c0 -13 -6 -27 -17 -42z" />
    <glyph glyph-name="bar" unicode="|" horiz-adv-x="392" 
d="M237 -235h-133v1000h133v-1000z" />
    <glyph glyph-name="asciitilde" unicode="~" 
d="M673 297c-51 -66 -102 -97 -180 -97c-37 0 -82 6 -129 29c-31 16 -68 32 -106 32c-48 0 -79 -47 -95 -68l-88 103c44 55 93 98 179 98c47 0 90 -13 128 -30c31 -15 72 -31 108 -31c45 0 75 41 95 68z" />
    <glyph glyph-name="exclamdown" unicode="&#xa1;" horiz-adv-x="293" 
d="M147 677c48 0 86 -39 86 -87s-38 -86 -86 -86s-87 38 -87 86s39 87 87 87zM77 83v288v15c1 48 28 78 70 78c41 0 70 -32 70 -78v-15v-288v-15c-1 -48 -29 -78 -70 -78c-42 0 -70 31 -70 78v15z" />
    <glyph glyph-name="cent" unicode="&#xa2;" horiz-adv-x="490" 
d="M336 599c31 -8 54 -18 80 -36c36 -25 47 -41 47 -70c0 -38 -29 -66 -69 -66c-15 0 -22 4 -40 17c-27 22 -49 31 -77 31c-63 0 -115 -51 -115 -113s51 -113 114 -113c31 0 47 7 85 37c16 12 25 15 42 15c36 0 67 -31 67 -67c0 -44 -58 -92 -134 -110v-21
c0 -33 -6 -49 -21 -61c-12 -10 -28 -16 -45 -16c-26 0 -49 13 -58 33c-8 17 -10 29 -10 68c-48 18 -75 35 -103 63c-45 44 -72 110 -72 174c0 109 72 205 175 235c1 63 20 87 67 87c49 0 68 -24 67 -87z" />
    <glyph glyph-name="sterling" unicode="&#xa3;" horiz-adv-x="588" 
d="M233 140h248h16c48 -1 78 -28 78 -70s-32 -70 -78 -70h-15h-302h-16c-52 2 -87 31 -87 74c0 20 5 42 20 85c21 63 23 67 25 91h-7c-38 0 -60 7 -74 23c-11 14 -18 30 -18 47c0 40 32 71 74 71h6c-6 26 -8 41 -8 61c0 123 103 225 227 225c82 0 156 -45 200 -121
c17 -31 26 -68 26 -108c0 -58 -29 -96 -74 -96c-20 0 -44 10 -56 24c-6 6 -12 15 -17 26c-4 8 -6 13 -6 15l2 31s0 3 -1 7c-7 40 -37 67 -75 67c-39 0 -74 -35 -74 -74c0 -8 1 -12 9 -45c1 -3 2 -7 3 -12h14h16c48 -1 78 -29 78 -71s-31 -70 -78 -70h-12h-7
c0 -40 -14 -80 -37 -110z" />
    <glyph glyph-name="fraction" unicode="&#x2044;" horiz-adv-x="348" 
d="M11 86l244 526c22 47 38 62 62 62c23 0 39 -14 39 -37c0 -11 -5 -30 -13 -46l-3 -7l-247 -531l-6 -13c-16 -32 -33 -49 -53 -49c-22 0 -41 18 -41 38c0 12 4 28 12 45z" />
    <glyph glyph-name="yen" unicode="&#xa5;" horiz-adv-x="577" 
d="M433 393h9c51 0 82 -26 82 -70c0 -19 -8 -38 -22 -51c-14 -14 -33 -19 -71 -19h-66v-157v-17c-1 -53 -31 -86 -76 -86c-46 0 -77 35 -77 86v17v157h-65h-15c-48 2 -78 29 -78 70c0 44 31 70 82 70h8l-103 140c-19 27 -28 47 -28 66c0 41 35 75 77 75c30 0 52 -16 76 -54
l122 -190l122 190c25 38 47 54 76 54c42 0 78 -34 78 -75c0 -19 -9 -39 -28 -66z" />
    <glyph glyph-name="florin" unicode="&#x192;" horiz-adv-x="498" 
d="M318 358l-49 -277c-3 -19 -13 -62 -18 -83c-23 -84 -79 -131 -158 -131c-80 0 -147 50 -147 111c0 41 32 74 72 74c12 0 19 -2 37 -10c17 -8 26 -11 33 -11c13 0 21 11 25 32l1 11l51 286c-35 1 -59 29 -59 66c0 39 26 67 66 70h9l8 1l8 44c11 62 27 111 44 138
c30 46 75 71 130 71c76 0 134 -43 134 -98c0 -45 -35 -81 -79 -81c-12 0 -22 3 -35 8c-13 6 -16 7 -21 7c-7 0 -12 -5 -14 -15l-2 -13l-3 -11l-9 -50h14c52 0 80 -23 80 -67c0 -47 -32 -72 -91 -72h-13h-14z" />
    <glyph glyph-name="currency" unicode="&#xa4;" horiz-adv-x="694" 
d="M597 176c-22 -22 -44 -45 -66 -67c-23 23 -46 46 -69 68c-35 -22 -76 -33 -115 -33c-35 0 -77 9 -114 33c-24 -22 -46 -45 -70 -68c-21 22 -43 45 -65 67c24 21 47 44 70 66c-24 39 -34 79 -34 112s9 74 34 112c-23 23 -46 45 -70 67c22 22 44 45 65 67
c24 -23 46 -46 70 -68c38 24 79 33 114 33c37 0 79 -10 115 -33c23 22 46 45 69 68c22 -22 44 -45 66 -67c-24 -22 -47 -44 -70 -67c26 -40 34 -82 34 -112c0 -32 -9 -72 -34 -112c23 -22 46 -45 70 -66zM468 355c0 69 -59 118 -120 118c-68 0 -121 -54 -121 -118
c0 -65 54 -119 120 -119c67 0 121 53 121 119z" />
    <glyph glyph-name="quotesingle" unicode="'" horiz-adv-x="258" 
d="M92 484l-26 98c-5 18 -6 22 -6 30c0 35 35 68 71 68s67 -30 67 -65c0 -8 -1 -13 -7 -37l-26 -96c-12 -45 -20 -59 -35 -59c-16 0 -25 14 -38 61z" />
    <glyph glyph-name="quotedblleft" unicode="&#x201c;" horiz-adv-x="474" 
d="M359 598l6 -3c33 -16 49 -39 49 -72c0 -43 -36 -79 -79 -79s-78 35 -78 77c0 12 3 25 9 43l29 78c11 28 22 39 41 39s38 -18 38 -35c0 -7 -3 -17 -8 -30zM163 598l5 -3c33 -16 49 -39 49 -72c0 -43 -36 -79 -79 -79s-78 35 -78 77c0 12 3 25 9 43l30 78
c10 28 21 39 40 39s38 -18 38 -35c0 -7 -3 -17 -8 -30z" />
    <glyph glyph-name="guillemotleft" unicode="&#xab;" horiz-adv-x="435" 
d="M150 267l34 -53l8 -11c8 -14 13 -29 13 -41c0 -31 -28 -58 -61 -58c-26 0 -39 9 -62 44l-45 68l-7 11c-9 15 -14 28 -14 40c0 10 7 27 16 40l53 78l7 11c15 22 32 32 53 32c32 0 59 -27 59 -58c0 -12 -5 -26 -13 -39l-7 -11zM350 267l34 -53l8 -11c8 -14 13 -29 13 -41
c0 -31 -28 -58 -61 -58c-26 0 -39 9 -62 44l-45 68l-7 11c-9 15 -14 28 -14 40c0 10 7 27 16 40l53 78l7 11c15 22 32 32 53 32c32 0 59 -27 59 -58c0 -12 -5 -26 -13 -39l-7 -11z" />
    <glyph glyph-name="guilsinglleft" unicode="&#x2039;" horiz-adv-x="235" 
d="M150 267l34 -53l8 -11c8 -14 13 -29 13 -41c0 -31 -28 -58 -61 -58c-26 0 -39 9 -62 44l-45 68l-7 11c-9 15 -14 28 -14 40c0 10 7 27 16 40l53 78l7 11c15 22 32 32 53 32c32 0 59 -27 59 -58c0 -12 -5 -26 -13 -39l-7 -11z" />
    <glyph glyph-name="guilsinglright" unicode="&#x203a;" horiz-adv-x="235" 
d="M84 267l-34 53l-7 11c-8 13 -13 28 -13 39c0 31 28 58 60 58c21 0 39 -11 53 -32l7 -11l53 -78c9 -13 15 -30 15 -40c0 -12 -5 -27 -13 -40l-7 -11l-46 -68c-23 -35 -36 -44 -61 -44c-33 0 -62 27 -62 58c0 12 6 28 14 41l7 11z" />
    <glyph glyph-name="endash" unicode="&#x2013;" horiz-adv-x="564" 
d="M156 331h252h15c45 -1 74 -27 74 -66c0 -40 -30 -67 -74 -67h-8h-259h-9c-50 0 -80 25 -80 66c0 40 30 67 74 67h15z" />
    <glyph glyph-name="periodcentered" unicode="&#xb7;" horiz-adv-x="280" 
d="M140 247c-48 0 -86 38 -86 86s38 87 86 87s87 -39 87 -87s-39 -86 -87 -86z" />
    <glyph glyph-name="bullet" unicode="&#x2022;" horiz-adv-x="453" 
d="M227 160c-96 0 -174 78 -174 173c0 96 78 174 174 174c95 0 173 -78 173 -174c0 -95 -78 -173 -173 -173z" />
    <glyph glyph-name="quotedblbase" unicode="&#x201e;" horiz-adv-x="474" 
d="M114 -5l-5 3c-33 16 -49 39 -49 72c0 43 36 80 79 80s78 -35 78 -78c0 -12 -3 -25 -10 -43l-29 -78c-10 -28 -21 -38 -40 -38s-38 17 -38 35c0 6 2 16 8 30zM311 -5l-5 3c-34 16 -49 39 -49 72c0 43 35 80 78 80s79 -35 79 -78c0 -12 -3 -25 -10 -43l-29 -78
c-10 -28 -21 -38 -41 -38c-19 0 -37 17 -37 35c0 6 2 16 7 30z" />
    <glyph glyph-name="quotedblright" unicode="&#x201d;" horiz-adv-x="474" 
d="M114 526l-5 3c-33 16 -49 39 -49 72c0 43 36 79 79 79s78 -35 78 -77c0 -12 -3 -25 -10 -43l-29 -78c-10 -28 -21 -39 -40 -39s-38 18 -38 35c0 7 2 17 8 30zM311 526l-5 3c-34 16 -49 39 -49 72c0 43 35 79 78 79s79 -35 79 -77c0 -12 -3 -25 -10 -43l-29 -78
c-10 -28 -21 -39 -41 -39c-19 0 -37 18 -37 35c0 7 2 17 7 30z" />
    <glyph glyph-name="guillemotright" unicode="&#xbb;" horiz-adv-x="435" 
d="M284 267l-34 53l-7 11c-8 13 -13 28 -13 39c0 31 28 58 60 58c21 0 39 -11 53 -32l7 -11l53 -78c9 -13 15 -30 15 -40c0 -12 -5 -27 -13 -40l-7 -11l-46 -68c-23 -35 -36 -44 -61 -44c-33 0 -61 27 -61 58c0 12 5 28 13 41l7 11zM84 267l-34 53l-7 11
c-8 13 -13 28 -13 39c0 31 28 58 60 58c21 0 39 -11 53 -32l7 -11l53 -78c9 -13 15 -30 15 -40c0 -12 -5 -27 -13 -40l-7 -11l-46 -68c-23 -35 -36 -44 -61 -44c-33 0 -62 27 -62 58c0 12 6 28 14 41l7 11z" />
    <glyph glyph-name="ellipsis" unicode="&#x2026;" horiz-adv-x="1000" 
d="M167 -10c-48 0 -87 39 -87 87s39 86 87 86s86 -38 86 -86s-38 -87 -86 -87zM500 -10c-48 0 -86 39 -86 87s38 86 86 86s87 -38 87 -86s-39 -87 -87 -87zM833 -10c-48 0 -86 39 -86 87s38 86 86 86s87 -38 87 -86s-39 -87 -87 -87z" />
    <glyph glyph-name="perthousand" unicode="&#x2030;" horiz-adv-x="1095" 
d="M214 86l245 526c22 47 37 62 62 62c23 0 38 -14 38 -37c0 -11 -5 -30 -12 -46l-4 -7l-247 -531l-6 -13c-15 -32 -33 -49 -52 -49c-22 0 -42 18 -42 38c0 12 5 28 12 45zM553 299c85 0 154 -68 154 -152c0 -85 -68 -153 -153 -153c-84 0 -153 68 -153 153
c0 84 69 152 152 152zM199 673c85 0 153 -68 153 -152c0 -85 -68 -153 -152 -153c-85 0 -154 68 -154 152s69 153 153 153zM894 299c85 0 154 -68 154 -152c0 -85 -68 -153 -153 -153c-84 0 -153 68 -153 153c0 84 69 152 152 152zM553 208c-33 0 -61 -27 -61 -60
c0 -35 27 -63 62 -63c34 0 61 28 61 62s-27 61 -62 61zM199 582c-34 0 -62 -28 -62 -61c0 -35 28 -62 62 -62s61 27 61 61s-27 62 -61 62zM894 208c-33 0 -61 -27 -61 -60c0 -35 27 -63 62 -63c34 0 61 28 61 62s-27 61 -62 61z" />
    <glyph glyph-name="questiondown" unicode="&#xbf;" horiz-adv-x="541" 
d="M268 677c48 0 87 -39 87 -87s-39 -86 -87 -86s-86 38 -86 86s38 87 86 87zM37 230c0 128 107 235 236 235c49 0 80 -26 80 -67c0 -39 -22 -60 -72 -67c-72 -11 -108 -46 -108 -104s46 -104 103 -104c54 0 89 32 104 98c8 36 29 54 64 54c39 0 67 -30 67 -70
s-22 -93 -53 -131c-44 -53 -113 -84 -184 -84c-131 0 -237 108 -237 240z" />
    <glyph glyph-name="grave" unicode="`" horiz-adv-x="299" 
d="M166 675l49 -51c12 -12 18 -25 18 -41c0 -31 -26 -57 -57 -57c-15 0 -31 7 -39 16l-55 58c-11 11 -16 23 -16 38c0 32 26 57 59 57c16 0 27 -5 41 -20z" />
    <glyph glyph-name="acute" unicode="&#xb4;" horiz-adv-x="299" 
d="M217 600l-55 -58c-8 -9 -24 -16 -39 -16c-31 0 -57 26 -57 57c0 16 6 29 18 41l49 51c14 15 25 20 42 20c32 0 58 -26 58 -58c0 -14 -5 -26 -16 -37z" />
    <glyph glyph-name="circumflex" unicode="&#x2c6;" horiz-adv-x="382" 
d="M191 567l-34 -29c-7 -7 -22 -11 -35 -11c-31 0 -57 25 -57 57c0 13 5 27 13 34l75 69c7 6 24 11 36 11c14 0 30 -5 38 -11l68 -59c13 -11 20 -27 20 -45c0 -31 -24 -56 -56 -56c-12 0 -24 4 -33 11z" />
    <glyph glyph-name="tilde" unicode="&#x2dc;" horiz-adv-x="438" 
d="M163 672c18 0 29 -3 57 -15c19 -9 34 -13 46 -13c8 0 16 1 22 4l20 11c7 3 13 5 19 5c23 0 44 -22 44 -46c0 -48 -48 -91 -102 -91c-16 0 -27 3 -52 14c-23 11 -36 14 -48 14c-8 0 -15 -1 -21 -5l-19 -10c-6 -3 -12 -5 -19 -5c-24 0 -43 21 -43 47c0 47 46 90 96 90z" />
    <glyph glyph-name="dieresis" unicode="&#xa8;" horiz-adv-x="476" 
d="M334 678c42 0 75 -34 75 -75c0 -42 -34 -76 -76 -76s-77 34 -77 74c0 43 35 77 78 77zM144 678c42 0 75 -34 75 -75c0 -42 -34 -76 -76 -76s-77 34 -77 74c0 43 35 77 78 77z" />
    <glyph glyph-name="ring" unicode="&#x2da;" horiz-adv-x="318" 
d="M160 704c51 0 92 -41 92 -92c0 -50 -42 -91 -93 -91c-50 0 -92 41 -92 90c0 52 41 93 93 93zM160 657c-26 0 -46 -20 -46 -46c0 -23 20 -43 45 -43s46 20 46 44c0 25 -20 45 -45 45z" />
    <glyph glyph-name="emdash" unicode="&#x2014;" horiz-adv-x="1133" 
d="M156 331h822h15c45 -1 74 -27 74 -66c0 -40 -30 -67 -74 -67h-9h-828h-9c-50 0 -80 25 -80 66c0 40 30 67 74 67h15z" />
    <glyph glyph-name="AE" unicode="&#xc6;" horiz-adv-x="845" 
d="M535 526v-123h156c29 0 39 -1 53 -8c18 -9 31 -32 31 -55s-14 -47 -32 -55c-11 -5 -30 -9 -52 -9h-156v-136h203c28 0 45 -3 59 -9c20 -10 35 -36 35 -62c0 -25 -15 -51 -35 -60c-12 -5 -38 -9 -59 -9h-249c-49 0 -64 4 -83 23c-19 18 -24 36 -24 78v47h-176l-55 -107
c-16 -33 -43 -51 -76 -51c-42 0 -76 32 -76 73c0 13 5 29 11 41l7 12l273 509c17 31 36 42 73 42h369c29 0 43 -2 58 -10c21 -10 35 -34 35 -60c0 -47 -31 -71 -93 -71h-197zM382 277v217l-111 -217h111z" />
    <glyph glyph-name="Oslash" unicode="&#xd8;" horiz-adv-x="750" 
d="M666 513c37 -49 54 -105 54 -174c0 -199 -151 -349 -350 -349c-79 0 -139 18 -180 53l-9 -11c-18 -21 -51 -40 -71 -40c-44 0 -78 36 -78 80c0 21 19 53 41 71l10 8c-37 48 -53 102 -53 171c0 201 150 355 347 355c75 0 133 -18 183 -57l4 6c5 7 13 13 37 28
c15 10 21 12 34 12c43 0 78 -36 78 -79c0 -26 -14 -47 -47 -74zM447 507c-16 12 -38 18 -67 18c-112 0 -196 -88 -196 -204c0 -25 3 -44 11 -59zM302 156c12 -12 30 -18 62 -18c117 0 204 85 204 199c0 26 -4 49 -12 66z" />
    <glyph glyph-name="OE" unicode="&#x152;" horiz-adv-x="921" 
d="M612 525v-123h153h16c43 -1 70 -25 70 -63c0 -39 -28 -64 -70 -64h-15h-154v-137h202c30 0 46 -2 59 -8c20 -9 35 -35 35 -61c0 -42 -31 -70 -77 -69h-16h-249h-21c-22 -1 -33 2 -50 11c-47 -15 -81 -21 -120 -21c-191 0 -345 154 -345 344c0 192 153 343 349 343
c45 0 77 -7 116 -26c17 13 28 16 50 16h19h243c25 0 46 -4 59 -10c20 -9 35 -35 35 -61c0 -25 -16 -52 -35 -61c-11 -6 -38 -10 -58 -10h-196zM459 503c-28 15 -50 21 -81 21c-108 0 -195 -86 -195 -192s87 -192 195 -192c30 0 52 5 81 19v344z" />
    <glyph glyph-name="ae" unicode="&#xe6;" horiz-adv-x="749" 
d="M449 154c20 -20 44 -29 75 -29c22 0 45 6 62 18l15 10c11 8 26 13 39 13c36 0 66 -30 66 -67c0 -56 -89 -109 -182 -109c-64 0 -128 25 -172 68c-50 -49 -92 -68 -154 -68c-56 0 -102 19 -132 57c-26 32 -39 69 -39 109c0 96 77 173 173 173c34 0 50 -5 95 -27
c0 25 -3 35 -10 45c-9 13 -28 22 -46 22c-13 0 -32 -4 -58 -12c-39 -13 -41 -14 -55 -14c-29 0 -51 23 -51 53c0 51 67 87 161 87c57 0 100 -13 143 -45c37 29 87 45 139 45c112 0 212 -81 212 -172c0 -28 -15 -50 -41 -60zM584 322c-16 19 -36 28 -63 28
c-54 0 -94 -35 -109 -97zM298 162c0 37 -29 67 -64 67c-38 0 -66 -30 -66 -68c0 -35 29 -63 65 -63c35 0 65 29 65 64z" />
    <glyph glyph-name="dotlessi" unicode="&#x131;" horiz-adv-x="253" 
d="M193 391v-309v-15c-1 -45 -26 -74 -66 -74s-67 30 -67 74v15v309v15c1 45 27 74 67 74s66 -30 66 -74v-15z" />
    <glyph glyph-name="oslash" unicode="&#xf8;" horiz-adv-x="560" 
d="M494 364c24 -41 35 -83 35 -128c0 -132 -113 -246 -245 -246c-50 0 -102 14 -130 37c-29 -33 -43 -43 -68 -43c-32 0 -60 28 -60 61c0 19 14 40 43 67c-24 34 -37 78 -37 126c0 134 113 245 247 245c48 0 94 -12 130 -35c22 28 44 42 68 42c30 0 58 -29 58 -59
c0 -19 -7 -33 -29 -55zM312 351c-8 5 -17 7 -32 7c-67 0 -120 -55 -120 -126c0 -8 1 -13 4 -24zM252 125c13 -6 20 -8 32 -8c63 0 117 58 117 125c0 8 0 13 -3 24z" />
    <glyph glyph-name="oe" unicode="&#x153;" horiz-adv-x="858" 
d="M564 153c17 -17 44 -28 73 -28c25 0 51 10 75 28c16 13 26 16 43 16c37 0 67 -29 67 -66c0 -27 -15 -48 -51 -72c-36 -25 -88 -41 -134 -41c-69 0 -148 34 -181 78c-39 -47 -110 -78 -180 -78c-137 0 -249 111 -249 246c0 137 111 247 248 247c73 0 133 -26 181 -79
c37 49 106 79 176 79c63 0 123 -25 164 -70c25 -27 42 -65 42 -94c0 -32 -14 -50 -54 -68zM694 324c-14 19 -32 27 -60 27c-57 0 -109 -47 -110 -100zM276 349c-64 0 -114 -50 -114 -115c0 -60 52 -110 114 -110s113 51 113 112c0 63 -50 113 -113 113z" />
    <glyph glyph-name="germandbls" unicode="&#xdf;" horiz-adv-x="523" 
d="M394 386c65 -28 103 -91 103 -172c0 -123 -92 -224 -204 -224c-44 0 -78 31 -78 71c0 33 26 60 59 63l15 1c41 4 72 42 72 90c0 52 -32 82 -101 97c-37 8 -46 19 -46 53s11 48 44 55c42 9 62 30 62 62s-26 58 -60 58c-26 0 -50 -15 -59 -36c-6 -14 -8 -28 -8 -59v-363
v-15c-1 -45 -26 -74 -66 -74s-67 30 -67 74v15v379c0 67 12 104 46 143c34 40 89 63 151 63c112 0 193 -71 193 -167c0 -50 -17 -86 -56 -114z" />
    <glyph glyph-name="logicalnot" unicode="&#xac;" 
d="M634 107h-133v161h-388v133h521v-294z" />
    <glyph glyph-name="plusminus" unicode="&#xb1;" 
d="M634 0h-520v133h520v-133zM634 368h-195v-185h-133v185h-192v133h192v186h133v-186h195v-133z" />
    <glyph glyph-name="divide" unicode="&#xf7;" 
d="M458 515c0 -54 -41 -84 -83 -84c-46 0 -86 38 -86 83c0 46 34 88 86 88c51 0 83 -38 83 -87zM634 237h-520v133h520v-133zM458 88c0 -54 -41 -84 -83 -84c-46 0 -86 38 -86 83c0 47 34 87 86 87c51 0 83 -37 83 -86z" />
    <glyph glyph-name="brokenbar" unicode="&#xa6;" horiz-adv-x="392" 
d="M237 317h-133v448h133v-448zM237 -235h-133v462h133v-462z" />
    <glyph glyph-name="minus" unicode="&#x2212;" 
d="M634 237h-520v133h520v-133z" />
    <glyph glyph-name="multiply" unicode="&#xd7;" 
d="M635 138l-94 -94l-166 168l-166 -167l-96 94l167 164l-164 163l91 96l168 -163l166 164l91 -98l-163 -162z" />
    <glyph glyph-name="Aacute" unicode="&#xc1;" horiz-adv-x="628" 
d="M446 114h-268l-21 -49l-6 -15c-17 -37 -41 -54 -75 -54c-41 0 -77 33 -77 73c0 13 4 28 11 43l7 15l221 495c14 31 39 47 73 47c32 0 60 -17 73 -47l227 -493c15 -32 17 -42 17 -60c0 -40 -36 -74 -77 -74c-34 0 -59 18 -75 53l-7 16zM393 246l-81 192l-79 -192h160z
M396 787l-55 -58c-8 -9 -24 -16 -39 -16c-31 0 -57 26 -57 57c0 16 6 29 18 41l49 51c14 15 25 20 42 20c32 0 58 -26 58 -58c0 -14 -5 -26 -16 -37z" />
    <glyph glyph-name="Acircumflex" unicode="&#xc2;" horiz-adv-x="628" 
d="M446 114h-268l-21 -49l-6 -15c-17 -37 -41 -54 -75 -54c-41 0 -77 33 -77 73c0 13 4 28 11 43l7 15l221 495c14 31 39 47 73 47c32 0 60 -17 73 -47l227 -493c15 -32 17 -42 17 -60c0 -40 -36 -74 -77 -74c-34 0 -59 18 -75 53l-7 16zM393 246l-81 192l-79 -192h160z
M313 751l-34 -29c-7 -7 -22 -11 -35 -11c-31 0 -57 25 -57 57c0 13 5 27 13 34l75 69c7 6 24 11 36 11c14 0 30 -5 38 -11l68 -59c13 -11 20 -27 20 -45c0 -31 -24 -56 -56 -56c-12 0 -24 4 -33 11z" />
    <glyph glyph-name="Adieresis" unicode="&#xc4;" horiz-adv-x="628" 
d="M446 114h-268l-21 -49l-6 -15c-17 -37 -41 -54 -75 -54c-41 0 -77 33 -77 73c0 13 4 28 11 43l7 15l221 495c14 31 39 47 73 47c32 0 60 -17 73 -47l227 -493c15 -32 17 -42 17 -60c0 -40 -36 -74 -77 -74c-34 0 -59 18 -75 53l-7 16zM393 246l-81 192l-79 -192h160z
M411 867c42 0 75 -34 75 -75c0 -42 -34 -76 -76 -76s-77 34 -77 74c0 43 35 77 78 77zM221 867c42 0 75 -34 75 -75c0 -42 -34 -76 -76 -76s-77 34 -77 74c0 43 35 77 78 77z" />
    <glyph glyph-name="Agrave" unicode="&#xc0;" horiz-adv-x="628" 
d="M446 114h-268l-21 -49l-6 -15c-17 -37 -41 -54 -75 -54c-41 0 -77 33 -77 73c0 13 4 28 11 43l7 15l221 495c14 31 39 47 73 47c32 0 60 -17 73 -47l227 -493c15 -32 17 -42 17 -60c0 -40 -36 -74 -77 -74c-34 0 -59 18 -75 53l-7 16zM393 246l-81 192l-79 -192h160z
M297 862l49 -51c12 -12 18 -25 18 -41c0 -31 -26 -57 -57 -57c-15 0 -31 7 -39 16l-55 58c-11 11 -16 23 -16 38c0 32 26 57 59 57c16 0 27 -5 41 -20z" />
    <glyph glyph-name="Aring" unicode="&#xc5;" horiz-adv-x="628" 
d="M446 114h-268l-21 -49l-6 -15c-17 -37 -41 -54 -75 -54c-41 0 -77 33 -77 73c0 13 4 28 11 43l7 15l221 495c14 31 39 47 73 47c32 0 60 -17 73 -47l227 -493c15 -32 17 -42 17 -60c0 -40 -36 -74 -77 -74c-34 0 -59 18 -75 53l-7 16zM393 246l-81 192l-79 -192h160z
M314 891c51 0 92 -41 92 -92c0 -50 -42 -91 -93 -91c-50 0 -92 41 -92 90c0 52 41 93 93 93zM314 844c-26 0 -46 -20 -46 -46c0 -23 20 -43 45 -43s46 20 46 44c0 25 -20 45 -45 45z" />
    <glyph glyph-name="Atilde" unicode="&#xc3;" horiz-adv-x="628" 
d="M446 114h-268l-21 -49l-6 -15c-17 -37 -41 -54 -75 -54c-41 0 -77 33 -77 73c0 13 4 28 11 43l7 15l221 495c14 31 39 47 73 47c32 0 60 -17 73 -47l227 -493c15 -32 17 -42 17 -60c0 -40 -36 -74 -77 -74c-34 0 -59 18 -75 53l-7 16zM393 246l-81 192l-79 -192h160z
M259 859c18 0 29 -3 57 -15c19 -9 34 -13 46 -13c8 0 16 1 22 4l20 11c7 3 13 5 19 5c23 0 44 -22 44 -46c0 -48 -48 -91 -102 -91c-16 0 -27 3 -52 14c-23 11 -36 14 -48 14c-8 0 -15 -1 -21 -5l-19 -10c-6 -3 -12 -5 -19 -5c-24 0 -43 21 -43 47c0 47 46 90 96 90z" />
    <glyph glyph-name="Ccedilla" unicode="&#xc7;" horiz-adv-x="665" 
d="M408 -8c13 -11 20 -27 20 -44c0 -16 -5 -28 -16 -40l-58 -61c-9 -10 -26 -16 -42 -16c-33 0 -59 27 -59 60c0 16 6 30 18 42l52 55c2 1 3 3 6 6c-170 24 -299 170 -299 339c0 191 154 344 344 344c93 0 186 -40 247 -106c19 -21 25 -36 25 -57c0 -43 -33 -76 -75 -76
c-21 0 -37 7 -56 25l-16 15c-33 29 -80 47 -126 47c-105 0 -190 -86 -190 -192c0 -105 87 -191 192 -191c42 0 92 18 118 42l27 24c18 17 36 25 57 25c41 0 75 -34 75 -75c0 -36 -32 -75 -91 -112c-46 -30 -100 -49 -153 -54z" />
    <glyph glyph-name="Eacute" unicode="&#xc9;" horiz-adv-x="536" 
d="M226 527v-124h156h14c43 -1 71 -25 71 -63s-29 -64 -71 -64h-14h-156v-136h203h16c47 -1 78 -28 78 -70s-32 -70 -78 -70h-16h-249h-18c-58 1 -89 32 -89 89v18v453v18c1 58 32 89 89 89h18h244h16c47 -1 77 -28 77 -70s-31 -70 -77 -70h-16h-198zM396 787l-55 -58
c-8 -9 -24 -16 -39 -16c-31 0 -57 26 -57 57c0 16 6 29 18 41l49 51c14 15 25 20 42 20c32 0 58 -26 58 -58c0 -14 -5 -26 -16 -37z" />
    <glyph glyph-name="Ecircumflex" unicode="&#xca;" horiz-adv-x="536" 
d="M226 527v-124h156h14c43 -1 71 -25 71 -63s-29 -64 -71 -64h-14h-156v-136h203h16c47 -1 78 -28 78 -70s-32 -70 -78 -70h-16h-249h-18c-58 1 -89 32 -89 89v18v453v18c1 58 32 89 89 89h18h244h16c47 -1 77 -28 77 -70s-31 -70 -77 -70h-16h-198zM289 754l-34 -29
c-7 -7 -22 -11 -35 -11c-31 0 -57 25 -57 57c0 13 5 27 13 34l75 69c7 6 24 11 36 11c14 0 30 -5 38 -11l68 -59c13 -11 20 -27 20 -45c0 -31 -24 -56 -56 -56c-12 0 -24 4 -33 11z" />
    <glyph glyph-name="Edieresis" unicode="&#xcb;" horiz-adv-x="536" 
d="M226 527v-124h156h14c43 -1 71 -25 71 -63s-29 -64 -71 -64h-14h-156v-136h203h16c47 -1 78 -28 78 -70s-32 -70 -78 -70h-16h-249h-18c-58 1 -89 32 -89 89v18v453v18c1 58 32 89 89 89h18h244h16c47 -1 77 -28 77 -70s-31 -70 -77 -70h-16h-198zM381 865
c42 0 75 -34 75 -75c0 -42 -34 -76 -76 -76s-77 34 -77 74c0 43 35 77 78 77zM191 865c42 0 75 -34 75 -75c0 -42 -34 -76 -76 -76s-77 34 -77 74c0 43 35 77 78 77z" />
    <glyph glyph-name="Egrave" unicode="&#xc8;" horiz-adv-x="536" 
d="M226 527v-124h156h14c43 -1 71 -25 71 -63s-29 -64 -71 -64h-14h-156v-136h203h16c47 -1 78 -28 78 -70s-32 -70 -78 -70h-16h-249h-18c-58 1 -89 32 -89 89v18v453v18c1 58 32 89 89 89h18h244h16c47 -1 77 -28 77 -70s-31 -70 -77 -70h-16h-198zM296 862l49 -51
c12 -12 18 -25 18 -41c0 -31 -26 -57 -57 -57c-15 0 -31 7 -39 16l-55 58c-11 11 -16 23 -16 38c0 32 26 57 59 57c16 0 27 -5 41 -20z" />
    <glyph glyph-name="Iacute" unicode="&#xcd;" horiz-adv-x="300" 
d="M226 571v-475v-17c0 -52 -30 -86 -76 -86s-77 35 -77 86v17v475v17c1 52 31 85 77 85s76 -34 76 -85v-17zM223 787l-55 -58c-8 -9 -24 -16 -39 -16c-31 0 -57 26 -57 57c0 16 6 29 18 41l49 51c14 15 25 20 42 20c32 0 58 -26 58 -58c0 -14 -5 -26 -16 -37z" />
    <glyph glyph-name="Icircumflex" unicode="&#xce;" horiz-adv-x="300" 
d="M226 571v-475v-17c0 -52 -30 -86 -76 -86s-77 35 -77 86v17v475v17c1 52 31 85 77 85s76 -34 76 -85v-17zM151 754l-34 -29c-7 -7 -22 -11 -35 -11c-31 0 -57 25 -57 57c0 13 5 27 13 34l75 69c7 6 24 11 36 11c14 0 30 -5 38 -11l68 -59c13 -11 20 -27 20 -45
c0 -31 -24 -56 -56 -56c-12 0 -24 4 -33 11z" />
    <glyph glyph-name="Idieresis" unicode="&#xcf;" horiz-adv-x="300" 
d="M226 571v-475v-17c0 -52 -30 -86 -76 -86s-77 35 -77 86v17v475v17c1 52 31 85 77 85s76 -34 76 -85v-17zM248 865c42 0 75 -34 75 -75c0 -42 -34 -76 -76 -76s-77 34 -77 74c0 43 35 77 78 77zM58 865c42 0 75 -34 75 -75c0 -42 -34 -76 -76 -76s-77 34 -77 74
c0 43 35 77 78 77z" />
    <glyph glyph-name="Igrave" unicode="&#xcc;" horiz-adv-x="300" 
d="M226 571v-475v-17c0 -52 -30 -86 -76 -86s-77 35 -77 86v17v475v17c1 52 31 85 77 85s76 -34 76 -85v-17zM158 862l49 -51c12 -12 18 -25 18 -41c0 -31 -26 -57 -57 -57c-15 0 -31 7 -39 16l-55 58c-11 11 -16 23 -16 38c0 32 26 57 59 57c16 0 27 -5 41 -20z" />
    <glyph glyph-name="Ntilde" unicode="&#xd1;" horiz-adv-x="724" 
d="M498 276v295v17c1 52 31 85 76 85c46 0 77 -34 77 -85v-17v-480c0 -37 -2 -50 -12 -64c-15 -23 -41 -37 -69 -37s-43 9 -72 48l-272 349v-291v-17c0 -52 -30 -86 -76 -86s-77 35 -77 86v17v488c0 29 3 42 13 56c15 22 36 33 60 33c28 0 46 -10 72 -44zM306 856
c18 0 29 -3 57 -15c19 -9 34 -13 46 -13c8 0 16 1 22 4l20 11c7 3 13 5 19 5c23 0 44 -22 44 -46c0 -48 -48 -91 -102 -91c-16 0 -27 3 -52 14c-23 11 -36 14 -48 14c-8 0 -15 -1 -21 -5l-19 -10c-6 -3 -12 -5 -19 -5c-24 0 -43 21 -43 47c0 47 46 90 96 90z" />
    <glyph glyph-name="Oacute" unicode="&#xd3;" horiz-adv-x="749" 
d="M373 677c88 0 177 -38 245 -103c65 -62 101 -149 101 -242c0 -188 -155 -342 -344 -342c-191 0 -345 153 -345 343s153 344 343 344zM375 525c-105 0 -193 -88 -193 -193s87 -191 193 -191s191 85 191 191s-86 193 -191 193zM463 787l-55 -58c-8 -9 -24 -16 -39 -16
c-31 0 -57 26 -57 57c0 16 6 29 18 41l49 51c14 15 25 20 42 20c32 0 58 -26 58 -58c0 -14 -5 -26 -16 -37z" />
    <glyph glyph-name="Ocircumflex" unicode="&#xd4;" horiz-adv-x="749" 
d="M373 677c88 0 177 -38 245 -103c65 -62 101 -149 101 -242c0 -188 -155 -342 -344 -342c-191 0 -345 153 -345 343s153 344 343 344zM375 525c-105 0 -193 -88 -193 -193s87 -191 193 -191s191 85 191 191s-86 193 -191 193zM372 754l-34 -29c-7 -7 -22 -11 -35 -11
c-31 0 -57 25 -57 57c0 13 5 27 13 34l75 69c7 6 24 11 36 11c14 0 30 -5 38 -11l68 -59c13 -11 20 -27 20 -45c0 -31 -24 -56 -56 -56c-12 0 -24 4 -33 11z" />
    <glyph glyph-name="Odieresis" unicode="&#xd6;" horiz-adv-x="749" 
d="M373 677c88 0 177 -38 245 -103c65 -62 101 -149 101 -242c0 -188 -155 -342 -344 -342c-191 0 -345 153 -345 343s153 344 343 344zM375 525c-105 0 -193 -88 -193 -193s87 -191 193 -191s191 85 191 191s-86 193 -191 193zM470 865c42 0 75 -34 75 -75
c0 -42 -34 -76 -76 -76s-77 34 -77 74c0 43 35 77 78 77zM280 865c42 0 75 -34 75 -75c0 -42 -34 -76 -76 -76s-77 34 -77 74c0 43 35 77 78 77z" />
    <glyph glyph-name="Ograve" unicode="&#xd2;" horiz-adv-x="749" 
d="M373 677c88 0 177 -38 245 -103c65 -62 101 -149 101 -242c0 -188 -155 -342 -344 -342c-191 0 -345 153 -345 343s153 344 343 344zM375 525c-105 0 -193 -88 -193 -193s87 -191 193 -191s191 85 191 191s-86 193 -191 193zM358 862l49 -51c12 -12 18 -25 18 -41
c0 -31 -26 -57 -57 -57c-15 0 -31 7 -39 16l-55 58c-11 11 -16 23 -16 38c0 32 26 57 59 57c16 0 27 -5 41 -20z" />
    <glyph glyph-name="Otilde" unicode="&#xd5;" horiz-adv-x="749" 
d="M373 677c88 0 177 -38 245 -103c65 -62 101 -149 101 -242c0 -188 -155 -342 -344 -342c-191 0 -345 153 -345 343s153 344 343 344zM375 525c-105 0 -193 -88 -193 -193s87 -191 193 -191s191 85 191 191s-86 193 -191 193zM317 856c18 0 29 -3 57 -15
c19 -9 34 -13 46 -13c8 0 16 1 22 4l20 11c7 3 13 5 19 5c23 0 44 -22 44 -46c0 -48 -48 -91 -102 -91c-16 0 -27 3 -52 14c-23 11 -36 14 -48 14c-8 0 -15 -1 -21 -5l-19 -10c-6 -3 -12 -5 -19 -5c-24 0 -43 21 -43 47c0 47 46 90 96 90z" />
    <glyph glyph-name="Uacute" unicode="&#xda;" horiz-adv-x="647" 
d="M54 260v311v17c0 52 30 85 76 85s77 -34 77 -85v-17v-311c0 -68 51 -121 117 -121c38 0 75 19 96 50c15 21 21 41 21 75v307v17c1 52 31 85 76 85c46 0 77 -34 77 -85v-17v-307c0 -155 -116 -274 -268 -274s-272 120 -272 270zM398 787l-55 -58c-8 -9 -24 -16 -39 -16
c-31 0 -57 26 -57 57c0 16 6 29 18 41l49 51c14 15 25 20 42 20c32 0 58 -26 58 -58c0 -14 -5 -26 -16 -37z" />
    <glyph glyph-name="Ucircumflex" unicode="&#xdb;" horiz-adv-x="647" 
d="M54 260v311v17c0 52 30 85 76 85s77 -34 77 -85v-17v-311c0 -68 51 -121 117 -121c38 0 75 19 96 50c15 21 21 41 21 75v307v17c1 52 31 85 76 85c46 0 77 -34 77 -85v-17v-307c0 -155 -116 -274 -268 -274s-272 120 -272 270zM321 754l-34 -29c-7 -7 -22 -11 -35 -11
c-31 0 -57 25 -57 57c0 13 5 27 13 34l75 69c7 6 24 11 36 11c14 0 30 -5 38 -11l68 -59c13 -11 20 -27 20 -45c0 -31 -24 -56 -56 -56c-12 0 -24 4 -33 11z" />
    <glyph glyph-name="Udieresis" unicode="&#xdc;" horiz-adv-x="647" 
d="M54 260v311v17c0 52 30 85 76 85s77 -34 77 -85v-17v-311c0 -68 51 -121 117 -121c38 0 75 19 96 50c15 21 21 41 21 75v307v17c1 52 31 85 76 85c46 0 77 -34 77 -85v-17v-307c0 -155 -116 -274 -268 -274s-272 120 -272 270zM419 865c42 0 75 -34 75 -75
c0 -42 -34 -76 -76 -76s-77 34 -77 74c0 43 35 77 78 77zM229 865c42 0 75 -34 75 -75c0 -42 -34 -76 -76 -76s-77 34 -77 74c0 43 35 77 78 77z" />
    <glyph glyph-name="Ugrave" unicode="&#xd9;" horiz-adv-x="647" 
d="M54 260v311v17c0 52 30 85 76 85s77 -34 77 -85v-17v-311c0 -68 51 -121 117 -121c38 0 75 19 96 50c15 21 21 41 21 75v307v17c1 52 31 85 76 85c46 0 77 -34 77 -85v-17v-307c0 -155 -116 -274 -268 -274s-272 120 -272 270zM315 862l49 -51c12 -12 18 -25 18 -41
c0 -31 -26 -57 -57 -57c-15 0 -31 7 -39 16l-55 58c-11 11 -16 23 -16 38c0 32 26 57 59 57c16 0 27 -5 41 -20z" />
    <glyph glyph-name="Ydieresis" unicode="&#x178;" horiz-adv-x="577" 
d="M288 444l122 176l10 14c20 27 40 40 67 40c41 0 77 -35 77 -75c0 -15 -7 -35 -19 -52l-9 -14l-171 -248v-189v-17c-1 -52 -31 -86 -76 -86c-46 0 -77 35 -77 86v17v189l-171 248c-22 33 -28 46 -28 66c0 40 35 75 77 75c26 0 48 -14 67 -40l9 -14zM378 863
c42 0 75 -34 75 -75c0 -42 -34 -76 -76 -76s-77 34 -77 74c0 43 35 77 78 77zM188 863c42 0 75 -34 75 -75c0 -42 -34 -76 -76 -76s-77 34 -77 74c0 43 35 77 78 77z" />
    <glyph glyph-name="aacute" unicode="&#xe1;" horiz-adv-x="492" 
d="M304 34c-39 -30 -73 -43 -113 -43c-93 0 -165 75 -165 171c0 99 76 175 174 175c33 0 63 -9 99 -28c0 49 -17 67 -59 67c-9 0 -24 -2 -36 -5l-32 -9c-19 -6 -30 -8 -41 -8c-31 0 -52 22 -52 53c0 52 65 86 159 86c65 0 122 -19 156 -53c30 -31 42 -76 41 -153v-35v-152
v-18c0 -34 -3 -47 -15 -63c-13 -17 -32 -26 -54 -26c-28 0 -47 12 -62 41zM299 166c0 39 -28 69 -66 69c-36 0 -65 -30 -65 -67c0 -38 29 -67 67 -67c37 0 64 28 64 65zM338 600l-55 -58c-8 -9 -24 -16 -39 -16c-31 0 -57 26 -57 57c0 16 6 29 18 41l49 51
c14 15 25 20 42 20c32 0 58 -26 58 -58c0 -14 -5 -26 -16 -37z" />
    <glyph glyph-name="acircumflex" unicode="&#xe2;" horiz-adv-x="492" 
d="M304 34c-39 -30 -73 -43 -113 -43c-93 0 -165 75 -165 171c0 99 76 175 174 175c33 0 63 -9 99 -28c0 49 -17 67 -59 67c-9 0 -24 -2 -36 -5l-32 -9c-19 -6 -30 -8 -41 -8c-31 0 -52 22 -52 53c0 52 65 86 159 86c65 0 122 -19 156 -53c30 -31 42 -76 41 -153v-35v-152
v-18c0 -34 -3 -47 -15 -63c-13 -17 -32 -26 -54 -26c-28 0 -47 12 -62 41zM299 166c0 39 -28 69 -66 69c-36 0 -65 -30 -65 -67c0 -38 29 -67 67 -67c37 0 64 28 64 65zM246 567l-34 -29c-7 -7 -22 -11 -35 -11c-31 0 -57 25 -57 57c0 13 5 27 13 34l75 69c7 6 24 11 36 11
c14 0 30 -5 38 -11l68 -59c13 -11 20 -27 20 -45c0 -31 -24 -56 -56 -56c-12 0 -24 4 -33 11z" />
    <glyph glyph-name="adieresis" unicode="&#xe4;" horiz-adv-x="492" 
d="M304 34c-39 -30 -73 -43 -113 -43c-93 0 -165 75 -165 171c0 99 76 175 174 175c33 0 63 -9 99 -28c0 49 -17 67 -59 67c-9 0 -24 -2 -36 -5l-32 -9c-19 -6 -30 -8 -41 -8c-31 0 -52 22 -52 53c0 52 65 86 159 86c65 0 122 -19 156 -53c30 -31 42 -76 41 -153v-35v-152
v-18c0 -34 -3 -47 -15 -63c-13 -17 -32 -26 -54 -26c-28 0 -47 12 -62 41zM299 166c0 39 -28 69 -66 69c-36 0 -65 -30 -65 -67c0 -38 29 -67 67 -67c37 0 64 28 64 65zM342 678c42 0 75 -34 75 -75c0 -42 -34 -76 -76 -76s-77 34 -77 74c0 43 35 77 78 77zM152 678
c42 0 75 -34 75 -75c0 -42 -34 -76 -76 -76s-77 34 -77 74c0 43 35 77 78 77z" />
    <glyph glyph-name="agrave" unicode="&#xe0;" horiz-adv-x="492" 
d="M304 34c-39 -30 -73 -43 -113 -43c-93 0 -165 75 -165 171c0 99 76 175 174 175c33 0 63 -9 99 -28c0 49 -17 67 -59 67c-9 0 -24 -2 -36 -5l-32 -9c-19 -6 -30 -8 -41 -8c-31 0 -52 22 -52 53c0 52 65 86 159 86c65 0 122 -19 156 -53c30 -31 42 -76 41 -153v-35v-152
v-18c0 -34 -3 -47 -15 -63c-13 -17 -32 -26 -54 -26c-28 0 -47 12 -62 41zM299 166c0 39 -28 69 -66 69c-36 0 -65 -30 -65 -67c0 -38 29 -67 67 -67c37 0 64 28 64 65zM240 675l49 -51c12 -12 18 -25 18 -41c0 -31 -26 -57 -57 -57c-15 0 -31 7 -39 16l-55 58
c-11 11 -16 23 -16 38c0 32 26 57 59 57c16 0 27 -5 41 -20z" />
    <glyph glyph-name="aring" unicode="&#xe5;" horiz-adv-x="492" 
d="M304 34c-39 -30 -73 -43 -113 -43c-93 0 -165 75 -165 171c0 99 76 175 174 175c33 0 63 -9 99 -28c0 49 -17 67 -59 67c-9 0 -24 -2 -36 -5l-32 -9c-19 -6 -30 -8 -41 -8c-31 0 -52 22 -52 53c0 52 65 86 159 86c65 0 122 -19 156 -53c30 -31 42 -76 41 -153v-35v-152
v-18c0 -34 -3 -47 -15 -63c-13 -17 -32 -26 -54 -26c-28 0 -47 12 -62 41zM299 166c0 39 -28 69 -66 69c-36 0 -65 -30 -65 -67c0 -38 29 -67 67 -67c37 0 64 28 64 65zM247 704c51 0 92 -41 92 -92c0 -50 -42 -91 -93 -91c-50 0 -92 41 -92 90c0 52 41 93 93 93zM247 657
c-26 0 -46 -20 -46 -46c0 -23 20 -43 45 -43s46 20 46 44c0 25 -20 45 -45 45z" />
    <glyph glyph-name="atilde" unicode="&#xe3;" horiz-adv-x="492" 
d="M304 34c-39 -30 -73 -43 -113 -43c-93 0 -165 75 -165 171c0 99 76 175 174 175c33 0 63 -9 99 -28c0 49 -17 67 -59 67c-9 0 -24 -2 -36 -5l-32 -9c-19 -6 -30 -8 -41 -8c-31 0 -52 22 -52 53c0 52 65 86 159 86c65 0 122 -19 156 -53c30 -31 42 -76 41 -153v-35v-152
v-18c0 -34 -3 -47 -15 -63c-13 -17 -32 -26 -54 -26c-28 0 -47 12 -62 41zM299 166c0 39 -28 69 -66 69c-36 0 -65 -30 -65 -67c0 -38 29 -67 67 -67c37 0 64 28 64 65zM190 672c18 0 29 -3 57 -15c19 -9 34 -13 46 -13c8 0 16 1 22 4l20 11c7 3 13 5 19 5
c23 0 44 -22 44 -46c0 -48 -48 -91 -102 -91c-16 0 -27 3 -52 14c-23 11 -36 14 -48 14c-8 0 -15 -1 -21 -5l-19 -10c-6 -3 -12 -5 -19 -5c-24 0 -43 21 -43 47c0 47 46 90 96 90z" />
    <glyph glyph-name="ccedilla" unicode="&#xe7;" horiz-adv-x="489" 
d="M314 -6c11 -12 17 -26 17 -42c0 -14 -5 -26 -15 -38l-55 -57c-9 -10 -25 -16 -40 -16c-31 0 -56 26 -56 57c0 15 5 29 17 41l53 55c-122 22 -208 123 -208 244c0 135 110 246 245 246c58 0 118 -22 162 -59c22 -18 30 -34 30 -56c0 -38 -29 -67 -69 -67
c-15 0 -23 4 -41 17c-29 23 -48 31 -76 31c-65 0 -116 -50 -116 -113s51 -113 115 -113c30 0 38 4 84 37c15 11 26 15 42 15c36 0 66 -30 66 -67c0 -49 -69 -100 -155 -115z" />
    <glyph glyph-name="eacute" unicode="&#xe9;" horiz-adv-x="500" 
d="M203 154c22 -19 43 -27 72 -27c27 0 50 8 77 28c16 12 27 16 42 16c38 0 67 -29 67 -66c0 -28 -15 -50 -50 -74c-37 -26 -88 -41 -136 -41c-134 0 -248 114 -248 248c0 133 112 245 244 245c108 0 209 -79 209 -166c0 -29 -15 -47 -55 -65zM334 325c-13 20 -32 28 -59 28
c-58 0 -106 -44 -111 -101zM364 600l-55 -58c-8 -9 -24 -16 -39 -16c-31 0 -57 26 -57 57c0 16 6 29 18 41l49 51c14 15 25 20 42 20c32 0 58 -26 58 -58c0 -14 -5 -26 -16 -37z" />
    <glyph glyph-name="ecircumflex" unicode="&#xea;" horiz-adv-x="500" 
d="M203 154c22 -19 43 -27 72 -27c27 0 50 8 77 28c16 12 27 16 42 16c38 0 67 -29 67 -66c0 -28 -15 -50 -50 -74c-37 -26 -88 -41 -136 -41c-134 0 -248 114 -248 248c0 133 112 245 244 245c108 0 209 -79 209 -166c0 -29 -15 -47 -55 -65zM334 325c-13 20 -32 28 -59 28
c-58 0 -106 -44 -111 -101zM250 567l-34 -29c-7 -7 -22 -11 -35 -11c-31 0 -57 25 -57 57c0 13 5 27 13 34l75 69c7 6 24 11 36 11c14 0 30 -5 38 -11l68 -59c13 -11 20 -27 20 -45c0 -31 -24 -56 -56 -56c-12 0 -24 4 -33 11z" />
    <glyph glyph-name="edieresis" unicode="&#xeb;" horiz-adv-x="500" 
d="M203 154c22 -19 43 -27 72 -27c27 0 50 8 77 28c16 12 27 16 42 16c38 0 67 -29 67 -66c0 -28 -15 -50 -50 -74c-37 -26 -88 -41 -136 -41c-134 0 -248 114 -248 248c0 133 112 245 244 245c108 0 209 -79 209 -166c0 -29 -15 -47 -55 -65zM334 325c-13 20 -32 28 -59 28
c-58 0 -106 -44 -111 -101zM346 678c42 0 75 -34 75 -75c0 -42 -34 -76 -76 -76s-77 34 -77 74c0 43 35 77 78 77zM156 678c42 0 75 -34 75 -75c0 -42 -34 -76 -76 -76s-77 34 -77 74c0 43 35 77 78 77z" />
    <glyph glyph-name="egrave" unicode="&#xe8;" horiz-adv-x="500" 
d="M203 154c22 -19 43 -27 72 -27c27 0 50 8 77 28c16 12 27 16 42 16c38 0 67 -29 67 -66c0 -28 -15 -50 -50 -74c-37 -26 -88 -41 -136 -41c-134 0 -248 114 -248 248c0 133 112 245 244 245c108 0 209 -79 209 -166c0 -29 -15 -47 -55 -65zM334 325c-13 20 -32 28 -59 28
c-58 0 -106 -44 -111 -101zM240 675l49 -51c12 -12 18 -25 18 -41c0 -31 -26 -57 -57 -57c-15 0 -31 7 -39 16l-55 58c-11 11 -16 23 -16 38c0 32 26 57 59 57c16 0 27 -5 41 -20z" />
    <glyph glyph-name="iacute" unicode="&#xed;" horiz-adv-x="253" 
d="M193 391v-309v-15c-1 -45 -26 -74 -66 -74s-67 30 -67 74v15v309v15c1 45 27 74 67 74s66 -30 66 -74v-15zM204 600l-55 -58c-8 -9 -24 -16 -39 -16c-31 0 -57 26 -57 57c0 16 6 29 18 41l49 51c14 15 25 20 42 20c32 0 58 -26 58 -58c0 -14 -5 -26 -16 -37z" />
    <glyph glyph-name="icircumflex" unicode="&#xee;" horiz-adv-x="253" 
d="M193 391v-309v-15c-1 -45 -26 -74 -66 -74s-67 30 -67 74v15v309v15c1 45 27 74 67 74s66 -30 66 -74v-15zM126 567l-34 -29c-7 -7 -22 -11 -35 -11c-31 0 -57 25 -57 57c0 13 5 27 13 34l75 69c7 6 24 11 36 11c14 0 30 -5 38 -11l68 -59c13 -11 20 -27 20 -45
c0 -31 -24 -56 -56 -56c-12 0 -24 4 -33 11z" />
    <glyph glyph-name="idieresis" unicode="&#xef;" horiz-adv-x="253" 
d="M193 391v-309v-15c-1 -45 -26 -74 -66 -74s-67 30 -67 74v15v309v15c1 45 27 74 67 74s66 -30 66 -74v-15zM222 678c42 0 75 -34 75 -75c0 -42 -34 -76 -76 -76s-77 34 -77 74c0 43 35 77 78 77zM32 678c42 0 75 -34 75 -75c0 -42 -34 -76 -76 -76s-77 34 -77 74
c0 43 35 77 78 77z" />
    <glyph glyph-name="igrave" unicode="&#xec;" horiz-adv-x="253" 
d="M193 391v-309v-15c-1 -45 -26 -74 -66 -74s-67 30 -67 74v15v309v15c1 45 27 74 67 74s66 -30 66 -74v-15zM133 675l49 -51c12 -12 18 -25 18 -41c0 -31 -26 -57 -57 -57c-15 0 -31 7 -39 16l-55 58c-11 11 -16 23 -16 38c0 32 26 57 59 57c16 0 27 -5 41 -20z" />
    <glyph glyph-name="ntilde" unicode="&#xf1;" horiz-adv-x="543" 
d="M353 82v153c0 40 -2 52 -9 69c-12 27 -42 46 -73 46c-46 0 -81 -38 -81 -86v-25v-157v-15c-1 -45 -27 -74 -67 -74c-39 0 -66 30 -66 74v15v169c0 65 14 110 47 152c40 50 102 80 166 80c74 0 147 -41 187 -106c19 -31 29 -77 29 -130v-165v-15c-1 -45 -27 -74 -66 -74
c-40 0 -67 30 -67 74v15zM216 672c18 0 29 -3 57 -15c19 -9 34 -13 46 -13c8 0 16 1 22 4l20 11c7 3 13 5 19 5c23 0 44 -22 44 -46c0 -48 -48 -91 -102 -91c-16 0 -27 3 -52 14c-23 11 -36 14 -48 14c-8 0 -15 -1 -21 -5l-19 -10c-6 -3 -12 -5 -19 -5c-24 0 -43 21 -43 47
c0 47 46 90 96 90z" />
    <glyph glyph-name="oacute" unicode="&#xf3;" horiz-adv-x="551" 
d="M277 483c137 0 247 -110 247 -248c0 -134 -112 -245 -248 -245s-249 110 -249 242c0 141 110 251 250 251zM277 350c-65 0 -114 -50 -114 -116c0 -59 51 -109 113 -109s113 50 113 112c0 63 -50 113 -112 113zM364 600l-55 -58c-8 -9 -24 -16 -39 -16
c-31 0 -57 26 -57 57c0 16 6 29 18 41l49 51c14 15 25 20 42 20c32 0 58 -26 58 -58c0 -14 -5 -26 -16 -37z" />
    <glyph glyph-name="ocircumflex" unicode="&#xf4;" horiz-adv-x="551" 
d="M277 483c137 0 247 -110 247 -248c0 -134 -112 -245 -248 -245s-249 110 -249 242c0 141 110 251 250 251zM277 350c-65 0 -114 -50 -114 -116c0 -59 51 -109 113 -109s113 50 113 112c0 63 -50 113 -112 113zM275 567l-34 -29c-7 -7 -22 -11 -35 -11
c-31 0 -57 25 -57 57c0 13 5 27 13 34l75 69c7 6 24 11 36 11c14 0 30 -5 38 -11l68 -59c13 -11 20 -27 20 -45c0 -31 -24 -56 -56 -56c-12 0 -24 4 -33 11z" />
    <glyph glyph-name="odieresis" unicode="&#xf6;" horiz-adv-x="551" 
d="M277 483c137 0 247 -110 247 -248c0 -134 -112 -245 -248 -245s-249 110 -249 242c0 141 110 251 250 251zM277 350c-65 0 -114 -50 -114 -116c0 -59 51 -109 113 -109s113 50 113 112c0 63 -50 113 -112 113zM371 678c42 0 75 -34 75 -75c0 -42 -34 -76 -76 -76
s-77 34 -77 74c0 43 35 77 78 77zM181 678c42 0 75 -34 75 -75c0 -42 -34 -76 -76 -76s-77 34 -77 74c0 43 35 77 78 77z" />
    <glyph glyph-name="ograve" unicode="&#xf2;" horiz-adv-x="551" 
d="M277 483c137 0 247 -110 247 -248c0 -134 -112 -245 -248 -245s-249 110 -249 242c0 141 110 251 250 251zM277 350c-65 0 -114 -50 -114 -116c0 -59 51 -109 113 -109s113 50 113 112c0 63 -50 113 -112 113zM253 675l49 -51c12 -12 18 -25 18 -41
c0 -31 -26 -57 -57 -57c-15 0 -31 7 -39 16l-55 58c-11 11 -16 23 -16 38c0 32 26 57 59 57c16 0 27 -5 41 -20z" />
    <glyph glyph-name="otilde" unicode="&#xf5;" horiz-adv-x="551" 
d="M277 483c137 0 247 -110 247 -248c0 -134 -112 -245 -248 -245s-249 110 -249 242c0 141 110 251 250 251zM277 350c-65 0 -114 -50 -114 -116c0 -59 51 -109 113 -109s113 50 113 112c0 63 -50 113 -112 113zM220 672c18 0 29 -3 57 -15c19 -9 34 -13 46 -13
c8 0 16 1 22 4l20 11c7 3 13 5 19 5c23 0 44 -22 44 -46c0 -48 -48 -91 -102 -91c-16 0 -27 3 -52 14c-23 11 -36 14 -48 14c-8 0 -15 -1 -21 -5l-19 -10c-6 -3 -12 -5 -19 -5c-24 0 -43 21 -43 47c0 47 46 90 96 90z" />
    <glyph glyph-name="uacute" unicode="&#xfa;" horiz-adv-x="543" 
d="M190 391v-153c0 -40 2 -52 9 -68c12 -27 42 -47 73 -47c46 0 81 38 81 86v25v157v15c1 45 27 74 67 74c39 0 66 -30 66 -74v-15v-168c0 -65 -14 -111 -47 -152c-40 -51 -102 -81 -166 -81c-74 0 -147 41 -187 106c-19 31 -29 78 -29 130v165v15c1 45 26 74 66 74
s67 -30 67 -74v-15zM371 600l-55 -58c-8 -9 -24 -16 -39 -16c-31 0 -57 26 -57 57c0 16 6 29 18 41l49 51c14 15 25 20 42 20c32 0 58 -26 58 -58c0 -14 -5 -26 -16 -37z" />
    <glyph glyph-name="ucircumflex" unicode="&#xfb;" horiz-adv-x="543" 
d="M190 391v-153c0 -40 2 -52 9 -68c12 -27 42 -47 73 -47c46 0 81 38 81 86v25v157v15c1 45 27 74 67 74c39 0 66 -30 66 -74v-15v-168c0 -65 -14 -111 -47 -152c-40 -51 -102 -81 -166 -81c-74 0 -147 41 -187 106c-19 31 -29 78 -29 130v165v15c1 45 26 74 66 74
s67 -30 67 -74v-15zM271 567l-34 -29c-7 -7 -22 -11 -35 -11c-31 0 -57 25 -57 57c0 13 5 27 13 34l75 69c7 6 24 11 36 11c14 0 30 -5 38 -11l68 -59c13 -11 20 -27 20 -45c0 -31 -24 -56 -56 -56c-12 0 -24 4 -33 11z" />
    <glyph glyph-name="udieresis" unicode="&#xfc;" horiz-adv-x="543" 
d="M190 391v-153c0 -40 2 -52 9 -68c12 -27 42 -47 73 -47c46 0 81 38 81 86v25v157v15c1 45 27 74 67 74c39 0 66 -30 66 -74v-15v-168c0 -65 -14 -111 -47 -152c-40 -51 -102 -81 -166 -81c-74 0 -147 41 -187 106c-19 31 -29 78 -29 130v165v15c1 45 26 74 66 74
s67 -30 67 -74v-15zM367 678c42 0 75 -34 75 -75c0 -42 -34 -76 -76 -76s-77 34 -77 74c0 43 35 77 78 77zM177 678c42 0 75 -34 75 -75c0 -42 -34 -76 -76 -76s-77 34 -77 74c0 43 35 77 78 77z" />
    <glyph glyph-name="ugrave" unicode="&#xf9;" horiz-adv-x="543" 
d="M190 391v-153c0 -40 2 -52 9 -68c12 -27 42 -47 73 -47c46 0 81 38 81 86v25v157v15c1 45 27 74 67 74c39 0 66 -30 66 -74v-15v-168c0 -65 -14 -111 -47 -152c-40 -51 -102 -81 -166 -81c-74 0 -147 41 -187 106c-19 31 -29 78 -29 130v165v15c1 45 26 74 66 74
s67 -30 67 -74v-15zM253 675l49 -51c12 -12 18 -25 18 -41c0 -31 -26 -57 -57 -57c-15 0 -31 7 -39 16l-55 58c-11 11 -16 23 -16 38c0 32 26 57 59 57c16 0 27 -5 41 -20z" />
    <glyph glyph-name="ydieresis" unicode="&#xff;" horiz-adv-x="490" 
d="M252 204l90 212l6 15c15 33 37 49 67 49c36 0 69 -31 69 -66c0 -15 -4 -28 -16 -53l-191 -402c-18 -38 -26 -51 -40 -69c-26 -33 -70 -54 -112 -54c-64 0 -118 40 -118 87c0 35 27 65 59 65c9 0 18 -1 28 -4l19 -5c7 -2 14 -3 20 -3c15 0 29 14 39 40l14 36l-152 312
l-7 13c-6 14 -10 28 -10 40c0 34 32 63 67 63c29 0 50 -15 64 -46l6 -13zM343 677c42 0 75 -34 75 -75c0 -42 -34 -76 -76 -76s-77 34 -77 74c0 43 35 77 78 77zM153 677c42 0 75 -34 75 -75c0 -42 -34 -76 -76 -76s-77 34 -77 74c0 43 35 77 78 77z" />
    <glyph glyph-name="uni00A0" unicode="&#xa0;" horiz-adv-x="260" 
 />
    <glyph glyph-name="uni00AD" unicode="&#xad;" horiz-adv-x="367" 
d="M156 198h-9c-50 0 -80 25 -80 66c0 40 30 67 74 67h15h54h15c45 -1 74 -27 74 -66c0 -40 -30 -67 -74 -67h-8h-61z" />
    <glyph glyph-name="uni03A9" unicode="&#x3a9;" horiz-adv-x="859" 
d="M813 0h-318v123c77 56 155 132 155 259c0 104 -77 198 -215 198c-119 0 -223 -75 -223 -203c0 -127 88 -204 154 -254v-123h-320v123h193c-94 46 -191 136 -191 286c0 176 151 303 383 303c267 0 382 -145 382 -300c0 -133 -84 -235 -199 -289h199v-123z" />
    <glyph glyph-name="pi" unicode="&#x3c0;" horiz-adv-x="895" 
d="M794 109l26 -96c-25 -14 -62 -23 -112 -23c-117 0 -164 72 -164 168v233h-190v-242c0 -67 -9 -114 -24 -149h-156c17 37 27 102 27 159v232c-34 0 -85 -11 -113 -26c-5 13 -36 82 -41 95c29 18 96 40 181 40h587v-109h-118v-211c0 -49 13 -81 56 -81c17 0 30 5 41 10z
" />
    <glyph glyph-name="Euro" unicode="&#x20ac;" 
d="M495 268c0 -44 -29 -51 -71 -51h-131c35 -46 91 -75 152 -75c42 0 92 17 118 41l27 25c18 17 36 24 57 24c41 0 75 -34 75 -75c0 -23 -11 -43 -36 -68c-61 -61 -153 -99 -241 -99c-148 0 -275 95 -324 227h-19c-42 0 -67 11 -67 51c0 44 35 52 65 52v14v18
c-41 0 -65 12 -65 51c0 45 37 52 67 52h20c49 130 176 222 322 222c81 0 153 -27 218 -80c39 -32 54 -55 54 -85c0 -41 -33 -74 -75 -74c-21 0 -37 7 -56 24l-16 15c-33 30 -80 48 -126 48c-59 0 -111 -27 -146 -70h127c49 0 71 -17 71 -52c0 -40 -20 -51 -71 -51h-170
c-1 -6 -1 -13 -1 -19v-13h171c49 0 71 -17 71 -52z" />
    <glyph glyph-name="litre" unicode="&#x2113;" horiz-adv-x="604" 
d="M527 59c-37 -33 -107 -76 -189 -76c-51 0 -90 14 -119 45c-33 33 -44 91 -44 130v49c-21 -18 -42 -37 -63 -55c-13 23 -27 47 -41 71c35 31 69 61 104 91v178c0 127 51 236 181 236c89 0 130 -63 130 -130c0 -94 -53 -172 -134 -251c-14 -13 -32 -32 -41 -42v-120
c0 -72 28 -98 72 -98s81 30 97 45c15 -25 31 -49 47 -73zM393 578c0 31 -13 46 -34 46c-35 0 -48 -47 -48 -93v-118c5 6 18 20 25 28c39 49 57 98 57 137z" />
    <glyph glyph-name="Omega" unicode="&#x2126;" horiz-adv-x="859" 
d="M813 0h-318v123c77 56 155 132 155 259c0 104 -77 198 -215 198c-119 0 -223 -75 -223 -203c0 -127 88 -204 154 -254v-123h-320v123h193c-94 46 -191 136 -191 286c0 176 151 303 383 303c267 0 382 -145 382 -300c0 -133 -84 -235 -199 -289h199v-123z" />
    <glyph glyph-name="estimated" unicode="&#x212e;" horiz-adv-x="749" 
d="M720 348h-535v-241c52 -50 115 -78 189 -78c140 0 206 74 262 159l39 -24c-65 -101 -145 -176 -301 -176c-203 0 -338 166 -338 361c0 199 130 362 343 362s341 -167 341 -363zM570 389v204c-45 41 -118 77 -191 77c-75 0 -144 -26 -194 -77v-204h385z" />
    <glyph glyph-name="partialdiff" unicode="&#x2202;" horiz-adv-x="723" 
d="M653 452c0 -64 -9 -125 -28 -185c-56 -172 -163 -279 -328 -279c-140 0 -233 92 -233 214c0 193 146 288 273 288c79 0 135 -32 164 -76h3c2 11 2 23 2 38c0 93 -44 169 -150 169c-39 0 -83 -13 -119 -36c-11 32 -22 64 -33 97c34 26 106 51 186 51
c185 0 263 -131 263 -281zM481 311c-11 42 -46 78 -105 78c-91 0 -159 -91 -159 -187c0 -61 37 -100 93 -100c84 0 145 89 171 209z" />
    <glyph glyph-name="Delta" unicode="&#x2206;" horiz-adv-x="794" 
d="M767 0h-738v63c92 212 184 424 276 637h190c90 -213 181 -425 272 -637v-63zM584 124c-57 132 -113 264 -170 396c-11 28 -14 54 -17 65h-5c-2 -10 -7 -35 -19 -62c-57 -133 -114 -266 -172 -399h383z" />
    <glyph glyph-name="product" unicode="&#x220f;" horiz-adv-x="910" 
d="M822 -230h-155v798h-423v-798h-155v930h733v-930z" />
    <glyph glyph-name="summation" unicode="&#x2211;" horiz-adv-x="788" 
d="M768 -230h-754v83c127 129 253 257 380 387c-120 123 -240 248 -360 371v89h709v-123h-484c106 -111 211 -222 316 -334c-111 -117 -223 -234 -334 -350h527v-123z" />
    <glyph glyph-name="uni2215" unicode="&#x2215;" horiz-adv-x="348" 
d="M11 86l244 526c22 47 38 62 62 62c23 0 39 -14 39 -37c0 -11 -5 -30 -13 -46l-3 -7l-247 -531l-6 -13c-16 -32 -33 -49 -53 -49c-22 0 -41 18 -41 38c0 12 4 28 12 45z" />
    <glyph glyph-name="uni2219" unicode="&#x2219;" horiz-adv-x="280" 
d="M140 247c-48 0 -86 38 -86 86s38 87 86 87s87 -39 87 -87s-39 -86 -87 -86z" />
    <glyph glyph-name="radical" unicode="&#x221a;" horiz-adv-x="712" 
d="M696 729c-96 -247 -192 -494 -289 -741h-87c-55 106 -110 211 -165 317c-23 -13 -46 -26 -69 -40c-11 24 -23 48 -34 72c53 30 107 59 160 89c50 -99 101 -197 151 -296c77 199 154 400 231 599h102z" />
    <glyph glyph-name="infinity" unicode="&#x221e;" horiz-adv-x="1008" 
d="M937 295c0 -117 -81 -196 -207 -196c-90 0 -170 47 -223 121h-2c-46 -63 -132 -121 -224 -121c-138 0 -211 84 -211 190c0 116 80 195 207 195c93 0 171 -47 228 -122h2c43 58 119 122 219 122c129 0 211 -74 211 -189zM825 290c0 49 -29 95 -105 95
c-60 0 -115 -37 -156 -94c40 -55 95 -93 159 -93c70 0 102 44 102 92zM445 292c-40 54 -100 93 -160 93c-63 0 -103 -38 -103 -94s44 -93 107 -93c56 0 114 36 156 94z" />
    <glyph glyph-name="integral" unicode="&#x222b;" horiz-adv-x="598" 
d="M511 622c-9 5 -33 15 -62 15c-47 0 -80 -30 -80 -87v-576c0 -149 -84 -216 -208 -216c-39 0 -90 9 -117 22c11 35 20 71 31 106c14 -7 38 -14 61 -14c49 0 80 29 80 87v573c0 147 74 219 204 219c51 0 99 -12 122 -23c-10 -36 -21 -70 -31 -106z" />
    <glyph glyph-name="approxequal" unicode="&#x2248;" 
d="M673 424c-51 -66 -102 -97 -180 -97c-37 0 -82 6 -129 29c-31 16 -68 32 -106 32c-48 0 -79 -47 -95 -68l-88 103c44 55 93 98 179 98c47 0 90 -13 128 -30c31 -15 72 -31 108 -31c45 0 75 41 95 68zM673 178c-51 -66 -102 -98 -180 -98c-37 0 -82 7 -129 30
c-31 16 -68 32 -106 32c-48 0 -79 -47 -95 -68l-88 103c44 55 93 98 179 98c47 0 90 -13 128 -30c31 -15 72 -32 108 -32c45 0 75 42 95 68z" />
    <glyph glyph-name="notequal" unicode="&#x2260;" 
d="M634 113h-299l-52 -90h-148l52 90h-73v133h149l67 114h-216v133h291l66 114h148l-66 -114h81v-133h-157l-67 -114h224v-133z" />
    <glyph glyph-name="lessequal" unicode="&#x2264;" 
d="M634 0h-520v133h520v-133zM634 153l-520 187v131l520 186v-138l-346 -113v-2l346 -113v-138z" />
    <glyph glyph-name="greaterequal" unicode="&#x2265;" 
d="M633 0h-519v133h519v-133zM634 340l-520 -186v138l345 113v2l-345 113v138l520 -187v-131z" />
    <glyph glyph-name="lozenge" unicode="&#x25ca;" horiz-adv-x="723" 
d="M662 350c-89 -117 -178 -233 -267 -350h-69c-89 116 -178 233 -267 349l267 351h69c89 -117 178 -233 267 -350zM545 350c-61 82 -123 163 -184 245c-62 -82 -125 -163 -187 -245c62 -82 125 -164 187 -246c61 82 123 164 184 246z" />
    </font>
</defs>
</svg>
